<?xml version="1.0" standalone="no"?>
<!DOCTYPE svg PUBLIC "-//W3C//DTD SVG 1.1//EN" "http://www.w3.org/Graphics/SVG/1.1/DTD/svg11.dtd" >
<svg xmlns="http://www.w3.org/2000/svg" xmlns:xlink="http://www.w3.org/1999/xlink" version="1.1">
<metadata>
Created by FontForge 20161013 at Wed Nov 23 13:15:11 2016
 By ,,,
copyright missing
</metadata>
<defs>
<font id="PierSans-Bold" horiz-adv-x="600" >
  <font-face 
    font-family="Pier Sans Bold"
    font-weight="700"
    font-stretch="normal"
    units-per-em="1000"
    panose-1="0 0 8 0 0 0 0 0 0 0"
    ascent="800"
    descent="-200"
    x-height="510"
    cap-height="750"
    bbox="-481 -316 1366 1067"
    underline-thickness="50"
    underline-position="-200"
    unicode-range="U+0020-25CA"
  />
<missing-glyph horiz-adv-x="483" 
d="M396 780v-965h-306v965h306zM321 715h-159v-31h63v-36h-64v-32h160v32h-63v36h63v31zM258 591h-97v-100h160v32h-63v68zM225 558v-35h-32v35h32zM321 464h-160v-31h64v-36h-64v-32h97v68h63v31zM321 407h-31v-64h-129v-33h160v97zM321 289h-96v-54h33v22h32v-45h-97v77
h-32v-109h160v109zM321 122h-160v-109h160v109zM290 90v-45h-97v45h97zM321 -9h-160v-32h68l-68 -46v-31h160v31h-98l67 46h31v32z" />
    <glyph glyph-name=".notdef" horiz-adv-x="483" 
d="M396 780v-965h-306v965h306zM321 715h-159v-31h63v-36h-64v-32h160v32h-63v36h63v31zM258 591h-97v-100h160v32h-63v68zM225 558v-35h-32v35h32zM321 464h-160v-31h64v-36h-64v-32h97v68h63v31zM321 407h-31v-64h-129v-33h160v97zM321 289h-96v-54h33v22h32v-45h-97v77
h-32v-109h160v109zM321 122h-160v-109h160v109zM290 90v-45h-97v45h97zM321 -9h-160v-32h68l-68 -46v-31h160v31h-98l67 46h31v32z" />
    <glyph glyph-name=".null" horiz-adv-x="0" 
 />
    <glyph glyph-name="nonmarkingreturn" horiz-adv-x="333" 
 />
    <glyph glyph-name="space" unicode=" " horiz-adv-x="360" 
 />
    <glyph glyph-name="exclam" unicode="!" horiz-adv-x="292" 
d="M220 241h-147l-10 539h166zM232 81q0 -36 -25 -61t-61 -25q-35 0 -60 25t-25 61q0 34 25 58.5t60 24.5q36 0 61 -24t25 -59z" />
    <glyph glyph-name="quotedbl" unicode="&#x22;" horiz-adv-x="487" 
d="M205 510h-133l-13 270h159zM415 510h-133l-13 270h159z" />
    <glyph glyph-name="numbersign" unicode="#" horiz-adv-x="871" 
d="M651 404l-56 -149h139v-99h-175l-57 -156h-105l57 156h-182l-57 -156h-105l58 156h-108v99h144l56 149h-103v99h139l59 161h104l-59 -161h182l60 161h104l-59 -161h144v-99h-180zM546 404h-182l-55 -149h181z" />
    <glyph glyph-name="dollar" unicode="$" horiz-adv-x="713" 
d="M412 437q115 -44 174.5 -95.5t59.5 -134.5q0 -96 -66.5 -151t-167.5 -64v-112h-72v112q-172 14 -280 130l105 104q87 -87 175 -100v197q-20 8 -31 13q-44 19 -70 33t-64 41t-57.5 62.5t-19.5 78.5q0 93 71 147.5t171 59.5v112h72v-115q145 -18 241 -115l-96 -101
q-59 57 -145 79v-181zM258 554q0 -27 19 -47.5t63 -40.5v158q-82 -8 -82 -70zM412 129q74 15 74 78q0 28 -18.5 47.5t-55.5 37.5v-163z" />
    <glyph glyph-name="percent" unicode="%" horiz-adv-x="1006" 
d="M250 780q82 0 136.5 -55.5t54.5 -134.5t-55 -135t-136 -56t-135.5 56t-54.5 135t54.5 134.5t135.5 55.5zM370 0h-140l405 750h139zM250 670q-35 0 -57.5 -23t-22.5 -57t22.5 -57.5t57.5 -23.5q36 0 58.5 23.5t22.5 57.5t-22.5 57t-58.5 23zM755 351q82 0 136.5 -55.5
t54.5 -134.5t-55 -135t-136 -56t-135.5 56t-54.5 135t54.5 134.5t135.5 55.5zM755 241q-35 0 -57.5 -23t-22.5 -57t22.5 -57.5t57.5 -23.5q36 0 58.5 23.5t22.5 57.5t-22.5 57t-58.5 23z" />
    <glyph glyph-name="ampersand" unicode="&#x26;" horiz-adv-x="846" 
d="M599 0l-42 50q-74 -55 -202 -55q-117 0 -206 61t-89 171q0 85 50.5 137t122.5 77q-42 43 -59.5 74.5t-17.5 69.5q0 74 60.5 122t154.5 48q89 0 152 -48.5t63 -121.5q0 -111 -132 -176l121 -152q25 30 40 75l140 -68q-34 -82 -81 -131l112 -133h-187zM371 622
q-25 0 -40 -14t-15 -38t15 -38t40 -14t40 14t15 38t-15 38t-40 14zM467 164l-159 194q-88 -47 -88 -121q0 -53 38.5 -81t87.5 -28q71 0 121 36z" />
    <glyph glyph-name="quotesingle" unicode="'" horiz-adv-x="277" 
d="M205 510h-133l-13 270h159z" />
    <glyph glyph-name="parenleft" unicode="(" horiz-adv-x="438" 
d="M220 299q0 -73 12.5 -134.5t30.5 -99.5t43 -68.5t43.5 -44.5t38.5 -24l-26 -132q-142 63 -222 193.5t-80 309.5t80 309.5t222 192.5l26 -131q-20 -10 -38.5 -24t-43.5 -44.5t-43 -69t-30.5 -99.5t-12.5 -134z" />
    <glyph glyph-name="parenright" unicode=")" horiz-adv-x="388" 
d="M168 299q0 73 -12.5 134t-30.5 99.5t-43 69t-43.5 44.5t-38.5 24l26 131q142 -62 222 -192.5t80 -309.5t-80 -309.5t-222 -193.5l-26 132q20 10 38.5 24t43.5 44.5t43 68.5t30.5 99.5t12.5 134.5z" />
    <glyph glyph-name="asterisk" unicode="*" horiz-adv-x="428" 
d="M394 551l-106 8l60 -88l-83 -48l-46 97l-46 -97l-83 48l60 88l-106 -8v95l106 -7l-60 89l83 48l46 -98l46 98l83 -48l-60 -89l106 7v-95z" />
    <glyph glyph-name="plus" unicode="+" horiz-adv-x="496" 
d="M310 185v-126h-124v126h-126v124h126v126h124v-126h126v-124h-126z" />
    <glyph glyph-name="comma" unicode="," horiz-adv-x="260" 
d="M231 80q0 -32 -33 -76l-88 -115h-41l37 115q-45 23 -45 76q0 34 24.5 59t59.5 25q36 0 61 -24.5t25 -59.5z" />
    <glyph glyph-name="hyphen" unicode="-" horiz-adv-x="486" 
d="M436 197h-376v124h376v-124z" />
    <glyph glyph-name="period" unicode="." horiz-adv-x="291" 
d="M231 81q0 -36 -25 -61t-61 -25q-35 0 -60 25t-25 61q0 34 25 58.5t60 24.5q36 0 61 -24t25 -59z" />
    <glyph glyph-name="slash" unicode="/" horiz-adv-x="499" 
d="M135 -185h-160l345 935h159z" />
    <glyph glyph-name="zero" unicode="0" horiz-adv-x="633" 
d="M602 255q-1 -122 -82 -191t-199 -69t-199.5 69t-81.5 191v240q0 121 82 190.5t199 69.5q122 0 201 -66.5t81 -193.5zM443 493q0 64 -35 96.5t-87 32.5q-51 0 -86 -32.5t-35 -96.5v-235q0 -64 35 -97t86 -33q52 0 87 33t35 97v235z" />
    <glyph glyph-name="one" unicode="1" horiz-adv-x="335" 
d="M305 750v-750h-160v617h-105v133h265z" />
    <glyph glyph-name="two" unicode="2" horiz-adv-x="556" 
d="M217 133h309v-133h-486v92q0 63 17.5 105.5t48 70.5t92.5 68q39 25 53.5 34.5t43 32.5t40 39.5t21.5 42t10 54.5q0 39 -21 61t-49 22q-92 0 -92 -129l-160 22q0 97 66.5 168.5t185.5 71.5q109 0 169.5 -62t60.5 -154q0 -71 -30.5 -120t-95.5 -97q-23 -17 -56 -38
t-52 -33.5t-38.5 -30.5t-28 -39t-8.5 -48z" />
    <glyph glyph-name="three" unicode="3" horiz-adv-x="580" 
d="M372 496q178 -47 178 -241q0 -122 -80 -191t-189 -69q-67 0 -133.5 26.5t-107.5 78.5l101 90q55 -62 130 -62q48 0 84 33.5t36 93.5q0 62 -42 100t-120 18l-48 70l117 174h-195v133h445z" />
    <glyph glyph-name="four" unicode="4" horiz-adv-x="630" 
d="M369 0v187h-329v105l334 458h155v-430h71v-133h-71v-187h-160zM369 320v192l-142 -192h142z" />
    <glyph glyph-name="five" unicode="5" horiz-adv-x="591" 
d="M353 515q94 0 151 -71.5t57 -177.5q0 -68 -24.5 -122t-65.5 -85.5t-89.5 -47.5t-100.5 -16q-159 0 -241 105l101 90q58 -62 134 -62q48 0 87 35t39 100t-38.5 100t-84.5 35q-60 0 -100 -56l-96 72v336h408v-133h-248v-133q48 31 111 31z" />
    <glyph glyph-name="six" unicode="6" horiz-adv-x="611" 
d="M384 515q86 0 141.5 -69.5t55.5 -180.5q0 -120 -75.5 -195t-195.5 -75q-119 0 -194.5 73t-75.5 187q0 42 12 87t42 103t50 92t69 110.5t65 102.5h176l-176 -270q47 35 106 35zM310 129q53 0 82 35.5t29 90.5q0 56 -29 91.5t-82 35.5t-81.5 -35.5t-28.5 -91.5
q0 -55 28.5 -90.5t81.5 -35.5z" />
    <glyph glyph-name="seven" unicode="7" horiz-adv-x="624" 
d="M594 750l-388 -750h-166l316 617h-300v133h538z" />
    <glyph glyph-name="eight" unicode="8" horiz-adv-x="645" 
d="M441 435q69 -14 121.5 -71t52.5 -139q0 -107 -83.5 -168.5t-203.5 -61.5t-204 62t-84 168q0 82 52.5 139t121.5 71q-13 6 -27 15t-32.5 26.5t-30.5 45t-12 59.5q0 76 61 125t156 49q93 0 154.5 -49t61.5 -125q0 -32 -12 -59.5t-31.5 -45t-33 -26.5t-27.5 -15zM272 564
q0 -29 17 -43.5t40 -14.5t39.5 14.5t16.5 43.5t-16.5 43.5t-39.5 14.5t-40 -14.5t-17 -43.5zM328 128q60 0 93.5 32.5t33.5 83.5q0 52 -33.5 84t-93.5 32t-94 -32t-34 -84q0 -51 34 -83.5t94 -32.5z" />
    <glyph glyph-name="nine" unicode="9" horiz-adv-x="611" 
d="M237 235q-86 0 -141.5 69.5t-55.5 180.5q0 120 75.5 195t195.5 75q119 0 194.5 -73t75.5 -187q0 -42 -12 -87t-42 -103t-50 -92t-69 -110.5t-65 -102.5h-176l176 270q-47 -35 -106 -35zM311 621q-53 0 -82 -35.5t-29 -90.5q0 -56 29 -91.5t82 -35.5t81.5 35.5t28.5 91.5
q0 55 -28.5 90.5t-81.5 35.5z" />
    <glyph glyph-name="colon" unicode=":" horiz-adv-x="261" 
d="M231 401q0 -36 -25 -61t-61 -25q-35 0 -60 25t-25 61q0 34 25 58.5t60 24.5q36 0 61 -24t25 -59zM231 81q0 -36 -25 -61t-61 -25q-35 0 -60 25t-25 61q0 34 25 58.5t60 24.5q36 0 61 -24t25 -59z" />
    <glyph glyph-name="semicolon" unicode=";" horiz-adv-x="260" 
d="M231 401q0 -36 -25 -61t-61 -25q-35 0 -60 25t-25 61q0 34 25 58.5t60 24.5q36 0 61 -24t25 -59zM231 80q0 -32 -33 -76l-88 -115h-41l37 115q-45 23 -45 76q0 34 24.5 59t59.5 25q36 0 61 -24.5t25 -59.5z" />
    <glyph glyph-name="less" unicode="&#x3c;" horiz-adv-x="497" 
d="M60 326l377 251v-168l-208 -134l208 -133v-168l-377 251v101z" />
    <glyph glyph-name="equal" unicode="=" horiz-adv-x="496" 
d="M436 282h-376v124h376v-124zM436 92h-376v124h376v-124z" />
    <glyph glyph-name="greater" unicode="&#x3e;" horiz-adv-x="484" 
d="M424 326v-101l-377 -251v168l208 133l-208 134v168z" />
    <glyph glyph-name="question" unicode="?" horiz-adv-x="625" 
d="M211 234q0 75 15 115.5t60 73.5q78 58 98.5 79t20.5 52q0 30 -21 49t-59 19q-105 0 -105 -120l-160 15q0 80 42 136t100 79t123 23q101 0 170.5 -55t69.5 -135q0 -13 -2.5 -26t-5 -23t-10 -21.5t-11 -18t-14.5 -17.5t-14.5 -15t-17.5 -15t-16.5 -12.5t-18 -12.5
t-16.5 -12q-27 -19 -43 -40t-20 -40t-5.5 -39.5t0.5 -38.5h-160zM385 81q0 -36 -25 -61t-61 -25q-35 0 -60 25t-25 61q0 34 25 58.5t60 24.5q36 0 61 -24t25 -59z" />
    <glyph glyph-name="at" unicode="@" horiz-adv-x="988" 
d="M714 501l-60 -326q-14 -66 29 -89q40 -21 89 11q70 46 80 154l1 31q0 146 -104 249.5t-250 103.5t-250 -103.5t-104 -249.5t104 -250t250 -104q88 0 135 27l106 -51q-106 -71 -241 -71q-187 0 -318 129t-131 320q0 125 60.5 228.5t163.5 161.5t225 58t225 -58
t163.5 -161.5t60.5 -228.5q0 -119 -61 -198.5t-154 -94.5q-84 -13 -136 21.5t-55 96.5q-59 -49 -140 -49q-92 0 -140 61.5t-30 164.5q19 107 89.5 172t161.5 65q82 0 124 -48l5 28h102zM438 162q52 0 87.5 34t45.5 89q11 59 -12.5 96t-75.5 37t-88.5 -37t-46.5 -96
q-10 -55 13.5 -89t76.5 -34z" />
    <glyph glyph-name="A" unicode="A" horiz-adv-x="744" 
d="M577 0l-56 141h-298l-56 -141h-157l298 750h128l298 -750h-157zM277 274h190l-95 238z" />
    <glyph glyph-name="B" unicode="B" horiz-adv-x="634" 
d="M459 421q74 -32 104.5 -80.5t30.5 -121.5q0 -91 -61.5 -155t-176.5 -64h-306v750h296q83 0 141 -53t58 -129q0 -48 -24 -87.5t-62 -59.5zM210 478h119q28 4 42 23.5t14 46.5q0 30 -14.5 49.5t-44.5 19.5h-116v-139zM336 133q46 0 72 30.5t26 75.5q0 44 -25.5 74.5
t-69.5 31.5h-129v-212h126z" />
    <glyph glyph-name="C" unicode="C" horiz-adv-x="759" 
d="M729 159q-44 -78 -125 -121t-173 -43q-160 0 -275.5 111t-115.5 269t115.5 269t275.5 111q92 0 173 -43.5t125 -121.5l-108 -78q-73 110 -192 110q-100 0 -164.5 -70.5t-64.5 -176.5t64.5 -176.5t164.5 -70.5q118 0 192 109z" />
    <glyph glyph-name="D" unicode="D" horiz-adv-x="747" 
d="M717 375q0 -155 -107 -264.5t-259 -110.5h-301v750h301q152 -1 259 -110.5t107 -264.5zM350 133q89 1 148 74t59 168q0 94 -59 167.5t-148 74.5h-140v-484h140z" />
    <glyph glyph-name="E" unicode="E" horiz-adv-x="632" 
d="M602 133v-133h-542v750h524v-133h-364v-163h298v-134h-298v-187h382z" />
    <glyph glyph-name="F" unicode="F" horiz-adv-x="613" 
d="M220 617v-183h293v-133h-293v-301h-160v750h523v-133h-363z" />
    <glyph glyph-name="G" unicode="G" horiz-adv-x="860" 
d="M820 431v-431h-160v115q-33 -58 -97 -91t-148 -33q-153 0 -259 110.5t-106 273.5q0 162 110 272.5t270 110.5q86 0 164.5 -34t136.5 -98l-105 -105q-29 42 -82.5 73t-113.5 31q-106 0 -163 -73t-57 -177q0 -105 58 -178t166 -73q94 0 156 50.5t62 133.5h-174v123h342z
" />
    <glyph glyph-name="H" unicode="H" horiz-adv-x="735" 
d="M695 750v-750h-160v308h-315v-308h-160v750h160v-309h315v309h160z" />
    <glyph glyph-name="I" unicode="I" horiz-adv-x="260" 
d="M220 0h-160v750h160v-750z" />
    <glyph glyph-name="J" unicode="J" horiz-adv-x="614" 
d="M574 750v-504q0 -50 -13.5 -93t-42 -80.5t-80 -59.5t-121.5 -22t-121.5 24t-80 64.5t-42 88t-13.5 101.5h160q0 -145 97 -145t97 122v504h160z" />
    <glyph glyph-name="K" unicode="K" horiz-adv-x="776" 
d="M407 433l329 -433h-186l-260 342l-70 -61v-281h-160v750h160v-289l310 289h206z" />
    <glyph glyph-name="L" unicode="L" horiz-adv-x="565" 
d="M535 133v-133h-475v750h160v-617h315z" />
    <glyph glyph-name="M" unicode="M" horiz-adv-x="975" 
d="M925 750v-750h-160v438l-224 -438h-97l-224 438v-438h-160v750h172l260 -518l260 518h173z" />
    <glyph glyph-name="N" unicode="N" horiz-adv-x="774" 
d="M724 0h-166l-338 495v-495h-160v750h165l339 -495v495h160v-750z" />
    <glyph glyph-name="O" unicode="O" horiz-adv-x="852" 
d="M431 755q168 0 279.5 -105.5t111.5 -274.5t-111.5 -274.5t-279.5 -105.5t-279.5 105.5t-111.5 274.5t111.5 274.5t279.5 105.5zM431 622q-103 0 -167 -70t-64 -177q0 -108 64 -177.5t167 -69.5t167 69.5t64 177.5q0 107 -64 177t-167 70z" />
    <glyph glyph-name="P" unicode="P" horiz-adv-x="656" 
d="M626 468q0 -120 -79 -201t-206 -81h-131v-186h-160v750h291q126 0 205.5 -81.5t79.5 -200.5zM329 319q62 0 99.5 43t37.5 106t-38 106t-99 43h-119v-298h119z" />
    <glyph glyph-name="Q" unicode="Q" horiz-adv-x="832" 
d="M822 375q0 -140 -81 -240l67 -67l-101 -101l-76 76q-90 -48 -200 -48q-168 0 -279.5 105.5t-111.5 274.5t111.5 274.5t279.5 105.5t279.5 -105.5t111.5 -274.5zM431 128q52 0 96 19l-86 86l101 101l89 -89q31 57 31 130q0 107 -64 177t-167 70t-167 -70t-64 -177
q0 -108 64 -177.5t167 -69.5z" />
    <glyph glyph-name="R" unicode="R" horiz-adv-x="687" 
d="M637 477q0 -78 -38 -141t-103 -98l161 -238h-178l-137 204h-122v-204h-160v750h300q116 0 196.5 -78.5t80.5 -194.5zM220 337h129q62 0 95 38.5t33 101.5t-33 101.5t-95 38.5h-129v-280z" />
    <glyph glyph-name="S" unicode="S" horiz-adv-x="643" 
d="M366 443q124 -46 187 -98t63 -138q0 -71 -38.5 -121t-98 -72.5t-132.5 -22.5q-93 0 -175.5 33.5t-141.5 97.5l105 104q104 -102 202 -102q52 0 85.5 21t33.5 62q0 16 -7 29.5t-16 23t-29 20.5t-34 17.5t-44 19t-47 19.5q-44 19 -70 33t-64 41t-57.5 62.5t-19.5 78.5
q0 97 76.5 152t182.5 55q89 0 166.5 -32t129.5 -86l-96 -101q-34 32 -89 59t-112 27q-19 0 -38 -4t-39.5 -21t-20.5 -46q0 -33 31 -58t107 -53z" />
    <glyph glyph-name="T" unicode="T" horiz-adv-x="625" 
d="M605 617h-207v-617h-160v617h-208v133h575v-133z" />
    <glyph glyph-name="U" unicode="U" horiz-adv-x="720" 
d="M680 750v-451q0 -41 -7 -79.5t-27.5 -81.5t-53 -74.5t-89.5 -52t-132 -20.5q-74 0 -131.5 20.5t-90.5 52t-54 74.5t-28 81.5t-7 79.5v451h160v-451q0 -16 1.5 -33t10.5 -44t24 -47.5t45 -35.5t70 -15t70 15t44.5 35t23 48t10 44t1.5 33v451h160z" />
    <glyph glyph-name="V" unicode="V" horiz-adv-x="738" 
d="M319 0l-309 750h161l199 -481l197 481h161l-309 -750h-100z" />
    <glyph glyph-name="W" unicode="W" horiz-adv-x="1049" 
d="M276 0l-266 750h157l153 -442l156 442h95l157 -442l153 442h158l-267 -750h-89l-159 441l-159 -441h-89z" />
    <glyph glyph-name="X" unicode="X" horiz-adv-x="748" 
d="M467 375l261 -375h-182l-168 249l-166 -249h-182l260 375l-260 375h182l167 -250l167 250h182z" />
    <glyph glyph-name="Y" unicode="Y" horiz-adv-x="754" 
d="M744 750l-287 -464v-286h-160v286l-287 464h174l193 -315l194 315h173z" />
    <glyph glyph-name="Z" unicode="Z" horiz-adv-x="637" 
d="M607 613l-382 -480h382v-133h-567v137l383 480h-383v133h567v-137z" />
    <glyph glyph-name="bracketleft" unicode="[" horiz-adv-x="372" 
d="M332 -52v-133h-272v965h272v-133h-112v-699h112z" />
    <glyph glyph-name="backslash" unicode="\" horiz-adv-x="554" 
d="M374 -185l-344 935h159l345 -935h-160z" />
    <glyph glyph-name="bracketright" unicode="]" horiz-adv-x="323" 
d="M-9 -52h112v699h-112v133h272v-965h-272v133z" />
    <glyph glyph-name="asciicircum" unicode="^" 
 />
    <glyph glyph-name="underscore" unicode="_" horiz-adv-x="596" 
d="M576 -149h-546v114h546v-114z" />
    <glyph glyph-name="grave" unicode="`" horiz-adv-x="328" 
d="M268 614h-106l-102 126l117 50z" />
    <glyph glyph-name="a" unicode="a" horiz-adv-x="549" 
d="M307 515q202 0 202 -215v-300h-155v55q-41 -60 -140 -60q-78 0 -121 40t-43 110q0 167 227 167h77q0 40 -19.5 60.5t-50.5 20.5q-52 0 -101 -42l-89 76q86 88 213 88zM354 172v28h-54q-52 0 -73.5 -12t-21.5 -39q0 -26 18 -39t47 -13q84 0 84 75z" />
    <glyph glyph-name="b" unicode="b" horiz-adv-x="614" 
d="M369 515q97 0 161 -70.5t64 -189.5q0 -124 -63 -192t-162 -68q-109 0 -164 73v-68h-155v780h155v-338q55 73 164 73zM322 117q55 0 86 38t31 100t-31 100t-86 38t-86 -38t-31 -100t31 -100t86 -38z" />
    <glyph glyph-name="c" unicode="c" horiz-adv-x="517" 
d="M497 96q-75 -101 -207 -101q-108 0 -184 75t-76 184t76 185t184 76q132 0 207 -101l-94 -84q-38 63 -103 63q-52 0 -83.5 -39.5t-31.5 -99.5t31.5 -98.5t83.5 -38.5q67 0 103 63z" />
    <glyph glyph-name="d" unicode="d" horiz-adv-x="604" 
d="M255 515q109 0 164 -73v338h155v-780h-155v68q-55 -73 -164 -73q-99 0 -162 68t-63 192q0 119 64 189.5t161 70.5zM302 117q55 0 86 38t31 100t-31 100t-86 38t-86 -38t-31 -100t31 -100t86 -38z" />
    <glyph glyph-name="e" unicode="e" horiz-adv-x="565" 
d="M545 205l-350 3q0 -41 34 -66t80 -25q71 0 116 48l92 -85q-87 -85 -216 -85q-119 0 -190 74.5t-71 186.5t69.5 185.5t182.5 73.5q115 0 184 -73t69 -186v-51zM390 302q0 41 -27.5 66t-70.5 25q-41 0 -69 -25.5t-28 -65.5h195z" />
    <glyph glyph-name="f" unicode="f" horiz-adv-x="377" 
d="M357 612q-27 21 -59 21q-27 0 -42.5 -20t-15.5 -57v-46h117v-122h-117v-388h-155v388h-55v122h55v37q0 105 42.5 156.5t115.5 51.5q76 0 114 -44v-99z" />
    <glyph glyph-name="g" unicode="g" horiz-adv-x="604" 
d="M419 510h155v-448q0 -68 -21 -118t-58 -78.5t-81.5 -42t-96.5 -13.5q-144 0 -278 65l68 99q109 -42 180 -42q132 0 132 136q-55 -73 -164 -73q-97 0 -161 70.5t-64 189.5q0 124 63 192t162 68q109 0 164 -73v68zM302 117q55 0 86 38t31 100t-31 100t-86 38t-86 -38
t-31 -100t31 -100t86 -38z" />
    <glyph glyph-name="h" unicode="h" horiz-adv-x="548" 
d="M518 0h-148v296q0 56 -21 82t-65 26q-45 0 -65.5 -25.5t-20.5 -82.5v-296h-148v780h148v-327q23 30 62.5 46t81.5 16q89 0 132 -51.5t43 -157.5z" />
    <glyph glyph-name="i" unicode="i" horiz-adv-x="245" 
d="M205 683q0 -31 -22 -52t-55 -21q-32 0 -54.5 21t-22.5 52q0 29 23 50.5t54 21.5q33 0 55 -21t22 -51zM204 0h-154v510h154v-510z" />
    <glyph glyph-name="j" unicode="j" horiz-adv-x="275" 
d="M235 683q0 -31 -22 -52t-55 -21q-32 0 -54.5 21t-22.5 52q0 29 23 50.5t54 21.5q33 0 55 -21t22 -51zM-4 -62q83 -44 83 70v502h155v-504q0 -93 -41.5 -144.5t-103.5 -51.5t-119 35z" />
    <glyph glyph-name="k" unicode="k" horiz-adv-x="598" 
d="M226 220l-31 -26v-194h-155v780h155v-430l185 160h208l-245 -216l245 -294h-181z" />
    <glyph glyph-name="l" unicode="l" horiz-adv-x="245" 
d="M205 0h-155v780h155v-780z" />
    <glyph glyph-name="m" unicode="m" horiz-adv-x="921" 
d="M542 0h-155l2 4v235q0 75 -20.5 114.5t-76.5 39.5q-58 0 -77.5 -38.5t-19.5 -115.5v-239h-155v510h155v-79q52 84 151 84q120 0 153 -111q24 51 73.5 81t116.5 30q89 0 145.5 -51t56.5 -152v-312h-155v239q0 77 -19 115.5t-78 38.5q-54 0 -75.5 -40t-21.5 -114v-239z" />
    <glyph glyph-name="n" unicode="n" horiz-adv-x="538" 
d="M508 0h-148v296q0 56 -21 82t-65 26q-45 0 -65.5 -25.5t-20.5 -82.5v-296h-148v510h148v-57q23 30 62.5 46t81.5 16q89 0 132 -51.5t43 -157.5z" />
    <glyph glyph-name="o" unicode="o" horiz-adv-x="584" 
d="M297 515q112 0 189.5 -70.5t77.5 -190.5t-77.5 -189.5t-189.5 -69.5t-189.5 69.5t-77.5 189.5t77.5 190.5t189.5 70.5zM297 393q-55 0 -83.5 -38t-28.5 -101q0 -62 28.5 -99.5t83.5 -37.5t83.5 37.5t28.5 99.5q0 63 -28.5 101t-83.5 38z" />
    <glyph glyph-name="p" unicode="p" horiz-adv-x="604" 
d="M369 -5q-109 0 -164 73v-253h-155v695h155v-68q55 73 164 73q99 0 162 -68t63 -192q0 -119 -64 -189.5t-161 -70.5zM322 393q-55 0 -86 -38t-31 -100t31 -100t86 -38t86 38t31 100t-31 100t-86 38z" />
    <glyph glyph-name="q" unicode="q" horiz-adv-x="604" 
d="M255 -5q-97 0 -161 70.5t-64 189.5q0 124 63 192t162 68q109 0 164 -73v68h155v-695h-155v253q-55 -73 -164 -73zM302 393q-55 0 -86 -38t-31 -100t31 -100t86 -38t86 38t31 100t-31 100t-86 38z" />
    <glyph glyph-name="r" unicode="r" horiz-adv-x="409" 
d="M377 361q-32 32 -74 32q-63 0 -85.5 -45t-22.5 -142v-206h-155v510h155v-84q25 89 124 89q52 0 80 -35z" />
    <glyph glyph-name="s" unicode="s" horiz-adv-x="459" 
d="M206 363q0 -18 18 -31.5t78 -41.5q65 -29 99 -64t34 -86q0 -68 -53 -106.5t-136 -38.5q-61 0 -124 25t-102 69l90 90q61 -62 123 -62q47 0 47 32q0 22 -22 38t-81 45q-67 33 -96.5 65.5t-29.5 77.5q0 50 33 83.5t72.5 45t80.5 11.5q57 0 112 -21t90 -62l-87 -87
q-46 48 -102 48q-16 0 -30 -8t-14 -22z" />
    <glyph glyph-name="t" unicode="t" horiz-adv-x="357" 
d="M337 118v-99q-38 -24 -104 -24q-73 0 -110.5 46t-37.5 152v195h-55v122h55v130h155v-130h97v-122h-97v-184q0 -120 97 -86z" />
    <glyph glyph-name="u" unicode="u" horiz-adv-x="538" 
d="M40 510h148v-296q0 -56 21 -82t65 -26q45 0 65.5 25.5t20.5 82.5v296h148v-510h-148v57q-23 -30 -62.5 -46t-81.5 -16q-89 0 -132 51.5t-43 157.5z" />
    <glyph glyph-name="v" unicode="v" horiz-adv-x="593" 
d="M249 0l-239 510h153l134 -298l134 298h152l-237 -510h-97z" />
    <glyph glyph-name="w" unicode="w" horiz-adv-x="814" 
d="M804 510l-198 -510h-98l-101 269l-100 -269h-98l-199 510h152l96 -288l95 288h108l96 -289l96 289h151z" />
    <glyph glyph-name="x" unicode="x" horiz-adv-x="569" 
d="M374 256l185 -256h-170l-104 156l-104 -156h-171l186 256l-186 254h170l104 -155l105 155h170z" />
    <glyph glyph-name="y" unicode="y" horiz-adv-x="569" 
d="M559 510l-168 -418q-62 -152 -105.5 -201.5t-119.5 -49.5q-31 0 -66.5 13t-58.5 37l23 97q50 -26 83 -26q18 0 31 11t19 37.5t-8 71.5l-169 428h154l116 -321l115 321h154z" />
    <glyph glyph-name="z" unicode="z" horiz-adv-x="465" 
d="M445 384l-247 -262h247v-122h-415v132l247 256h-247v122h415v-126z" />
    <glyph glyph-name="braceleft" unicode="{" horiz-adv-x="503" 
d="M342 41q0 -59 23 -87t88 -28v-133q-119 -3 -195 42t-76 146q0 36 5.5 78.5t8.5 65.5t-3.5 45.5t-27.5 36.5q-32 22 -105 22v134q71 0 105 23q27 18 30.5 44.5t-5 84t-8.5 97.5q0 101 76 146t195 42v-133q-65 0 -88 -28t-23 -87v-18q0 -38 -0.5 -58t-5.5 -54.5t-14.5 -55
t-29.5 -41t-48 -29.5q28 -9 48 -29.5t29.5 -40.5t14.5 -55t5.5 -54t0.5 -58v-18z" />
    <glyph glyph-name="bar" unicode="|" horiz-adv-x="250" 
d="M60 830h140v-965h-140v965z" />
    <glyph glyph-name="braceright" unicode="}" horiz-adv-x="491" 
d="M149 41v18q0 38 0.5 58t5.5 54t14.5 54.5t29.5 41t48 29.5q-28 9 -48 29.5t-29.5 40.5t-14.5 55.5t-5.5 54.5t-0.5 58v18q0 59 -23 87t-88 28v133q119 3 195 -42t76 -146q0 -36 -5.5 -78.5t-8.5 -65.5t3.5 -45.5t27.5 -36.5q34 -23 105 -23v-134q-73 0 -105 -22
q-27 -18 -30.5 -44.5t5 -84t8.5 -97.5q0 -101 -76 -146t-195 -42v133q65 0 88 28t23 87z" />
    <glyph glyph-name="asciitilde" unicode="~" horiz-adv-x="511" 
d="M194 276q-17 0 -22.5 -12t-5.5 -41h-106q0 77 31 120.5t79 43.5q34 0 81 -26.5t66 -26.5q17 0 22.5 12t5.5 41h106q0 -77 -31 -120.5t-79 -43.5q-33 0 -80.5 26.5t-66.5 26.5z" />
    <glyph glyph-name="exclamdown" unicode="&#xa1;" horiz-adv-x="243" 
d="M232 514q0 -35 -25 -59t-61 -24q-35 0 -60 24.5t-25 58.5q0 36 25 61t60 25q36 0 61 -25t25 -61zM220 354l9 -539h-166l10 539h147z" />
    <glyph glyph-name="cent" unicode="&#xa2;" horiz-adv-x="587" 
d="M365 121q41 12 68 59l94 -84q-63 -84 -162 -98v-128h-72v126q-99 10 -166 83t-67 175t67 175.5t166 84.5v113h72v-115q99 -14 162 -98l-94 -84q-27 44 -68 58v-267zM215 254q0 -48 21 -83t57 -48v264q-36 -13 -57 -49t-21 -84z" />
    <glyph glyph-name="sterling" unicode="&#xa3;" horiz-adv-x="634" 
d="M345 275q-12 -34 -51.5 -78t-39.5 -64h311v-133h-505q0 61 15 108t34 69.5t41.5 49.5t31.5 48h-92v72h101q-3 41 -27.5 95.5t-24.5 97.5q0 90 70 152.5t162 62.5q68 0 111.5 -18t91.5 -59l-76 -113q-46 57 -104 57q-47 0 -71 -32t-24 -69q0 -42 23.5 -97.5t27.5 -76.5
h151v-72h-156z" />
    <glyph glyph-name="currency" unicode="&#xa4;" 
 />
    <glyph glyph-name="yen" unicode="&#xa5;" horiz-adv-x="854" 
d="M794 750l-275 -444h128v-72h-140v-48h140v-72h-140v-114h-160v114h-139v72h139v48h-139v72h127l-275 444h174l193 -315l194 315h173z" />
    <glyph glyph-name="brokenbar" unicode="&#xa6;" 
 />
    <glyph glyph-name="section" unicode="&#xa7;" 
 />
    <glyph glyph-name="dieresis" unicode="&#xa8;" horiz-adv-x="521" 
d="M231 704q0 -36 -25 -61t-61 -25q-35 0 -60 25t-25 61q0 34 25 58.5t60 24.5q36 0 61 -24t25 -59zM461 704q0 -36 -25 -61t-61 -25q-35 0 -60 25t-25 61q0 34 25 58.5t60 24.5q36 0 61 -24t25 -59z" />
    <glyph glyph-name="copyright" unicode="&#xa9;" horiz-adv-x="1018" 
d="M509 -156q187 0 318 129t131 320q0 125 -60.5 228.5t-163.5 161.5t-225 58t-225 -58t-163.5 -161.5t-60.5 -228.5q0 -191 131 -320t318 -129zM509 -61q-152 0 -253 103t-101 251q0 147 101 250t253 103t253 -103t101 -250q0 -148 -101 -251t-253 -103zM717 136
q-75 -101 -207 -101q-108 0 -184 75t-76 184t76 185t184 76q132 0 207 -101l-94 -84q-38 63 -103 63q-52 0 -83.5 -39.5t-31.5 -99.5t31.5 -98.5t83.5 -38.5q67 0 103 63z" />
    <glyph glyph-name="guillemotleft" unicode="&#xab;" horiz-adv-x="774" 
d="M60 316l337 261v-168l-188 -134l188 -133v-168l-337 261v81zM377 316l337 261v-168l-188 -134l188 -133v-168l-337 261v81z" />
    <glyph glyph-name="logicalnot" unicode="&#xac;" 
 />
    <glyph glyph-name="registered" unicode="&#xae;" horiz-adv-x="701" 
d="M351 189q122 0 206 82.5t84 207.5q0 126 -84 208.5t-206 82.5t-206.5 -82.5t-84.5 -208.5q0 -125 84.5 -207.5t206.5 -82.5zM351 255q-93 0 -159 66t-66 158q0 93 66 159t159 66t158.5 -66t65.5 -159q0 -92 -65.5 -158t-158.5 -66zM471 523q0 -60 -54 -90l61 -89h-67
l-51 77h-46v-77h-60v282h112q44 0 74.5 -29.5t30.5 -73.5zM314 471h48q23 0 35.5 14.5t12.5 37.5q0 24 -12.5 38.5t-35.5 14.5h-48v-105z" />
    <glyph glyph-name="macron" unicode="&#xaf;" horiz-adv-x="476" 
d="M436 590h-376v124h376v-124z" />
    <glyph glyph-name="degree" unicode="&#xb0;" horiz-adv-x="501" 
d="M250 800q82 0 136.5 -55.5t54.5 -134.5t-55 -135t-136 -56t-135.5 56t-54.5 135t54.5 134.5t135.5 55.5zM250 690q-35 0 -57.5 -23t-22.5 -57t22.5 -57.5t57.5 -23.5q36 0 58.5 23.5t22.5 57.5t-22.5 57t-58.5 23z" />
    <glyph glyph-name="plusminus" unicode="&#xb1;" horiz-adv-x="496" 
d="M310 282v-96h-124v96h-126v124h126v96h124v-96h126v-124h-126zM436 14h-376v124h376v-124z" />
    <glyph glyph-name="acute" unicode="&#xb4;" horiz-adv-x="328" 
d="M60 614l91 176l117 -50l-102 -126h-106z" />
    <glyph glyph-name="paragraph" unicode="&#xb6;" 
 />
    <glyph glyph-name="periodcentered" unicode="&#xb7;" horiz-adv-x="261" 
d="M231 311q0 -36 -25 -61t-61 -25q-35 0 -60 25t-25 61q0 34 25 58.5t60 24.5q36 0 61 -24t25 -59z" />
    <glyph glyph-name="cedilla" unicode="&#xb8;" horiz-adv-x="271" 
d="M179 0l-35 -51q38 7 62.5 -11.5t24.5 -55.5q0 -36 -29 -59t-68 -23q-53 0 -84 29l44 46q11 -11 28 -11q12 0 20.5 7t8.5 19t-8.5 19t-20.5 7q-17 0 -28 -11l-34 36l44 59h75z" />
    <glyph glyph-name="guillemotright" unicode="&#xbb;" horiz-adv-x="691" 
d="M314 316v-81l-337 -261v168l188 133l-188 134v168zM631 316v-81l-337 -261v168l188 133l-188 134v168z" />
    <glyph glyph-name="questiondown" unicode="&#xbf;" horiz-adv-x="579" 
d="M204 485q0 36 25 61t61 25q35 0 60 -25t25 -61q0 -34 -25 -58.5t-60 -24.5q-36 0 -61 24t-25 59zM378 332q0 -75 -15 -115.5t-60 -73.5q-78 -58 -98.5 -79t-20.5 -52q0 -30 21 -49t59 -19q105 0 105 120l160 -15q0 -80 -42 -136t-100 -79t-123 -23q-101 0 -170.5 55
t-69.5 135q0 13 2.5 26t5 23t10 21.5t11 18t14.5 17.5t14.5 15t17.5 15t16.5 12.5t18 12.5t16.5 12q27 19 43 40t20 40t5.5 39.5t-0.5 38.5h160z" />
    <glyph glyph-name="Agrave" unicode="&#xc0;" horiz-adv-x="744" 
d="M433 861h-106l-102 126l117 50zM577 0l-56 141h-298l-56 -141h-157l298 750h128l298 -750h-157zM277 274h190l-95 238z" />
    <glyph glyph-name="Aacute" unicode="&#xc1;" horiz-adv-x="744" 
d="M522 987l-102 -126h-106l91 176zM577 0l-56 141h-298l-56 -141h-157l298 750h128l298 -750h-157zM277 274h190l-95 238z" />
    <glyph glyph-name="Acircumflex" unicode="&#xc2;" horiz-adv-x="744" 
d="M372 957l-68 -96h-106l127 186h94l127 -186h-106zM577 0l-56 141h-298l-56 -141h-157l298 750h128l298 -750h-157zM277 274h190l-95 238z" />
    <glyph glyph-name="Atilde" unicode="&#xc3;" horiz-adv-x="744" 
d="M310 887q-17 0 -22.5 -12t-5.5 -41h-106q0 77 31 120.5t79 43.5q34 0 81 -26.5t66 -26.5q17 0 22.5 12t5.5 41h106q0 -77 -31 -120.5t-79 -43.5q-33 0 -81 26.5t-66 26.5zM577 0l-56 141h-298l-56 -141h-157l298 750h128l298 -750h-157zM277 274h190l-95 238z" />
    <glyph glyph-name="Adieresis" unicode="&#xc4;" horiz-adv-x="744" 
d="M260 865q-35 0 -60 25t-25 61q0 34 25 58.5t60 24.5q36 0 61 -24t25 -59q0 -36 -25 -61t-61 -25zM490 865q-35 0 -60 25t-25 61q0 34 25 58.5t60 24.5q36 0 61 -24t25 -59q0 -36 -25 -61t-61 -25zM577 0l-56 141h-298l-56 -141h-157l298 750h128l298 -750h-157zM277 274
h190l-95 238z" />
    <glyph glyph-name="Aring" unicode="&#xc5;" horiz-adv-x="744" 
d="M371 806q-54 0 -92 37.5t-38 93.5t38 93t92 37q55 0 93 -37t38 -93t-38 -93.5t-93 -37.5zM371 987q-20 0 -35 -15t-15 -35q0 -21 15 -36t35 -15q21 0 36 15t15 36q0 20 -15 35t-36 15zM577 0l-56 141h-298l-56 -141h-157l298 750h128l298 -750h-157zM277 274h190l-95 238
z" />
    <glyph glyph-name="AE" unicode="&#xc6;" horiz-adv-x="1066" 
d="M654 133h382v-133h-542v141h-271l-56 -141h-157l298 750h215h495v-133h-364v-163h298v-134h-298v-187zM277 274h217v343h-80z" />
    <glyph glyph-name="Ccedilla" unicode="&#xc7;" horiz-adv-x="759" 
d="M429 128q118 0 192 109l108 -78q-39 -69 -107.5 -111t-149.5 -51l-33 -48q38 7 62.5 -11.5t24.5 -55.5q0 -36 -29 -59t-68 -23q-53 0 -84 29l44 46q11 -11 28 -11q12 0 20.5 7t8.5 19t-8.5 19t-20.5 7q-17 0 -28 -11l-34 36l41 56q-148 13 -252 121t-104 257
q0 158 115.5 269t275.5 111q92 0 173 -43.5t125 -121.5l-108 -78q-73 110 -192 110q-100 0 -164.5 -70.5t-64.5 -176.5t64.5 -176.5t164.5 -70.5z" />
    <glyph glyph-name="Egrave" unicode="&#xc8;" horiz-adv-x="632" 
d="M358 861h-106l-102 126l117 50zM602 133v-133h-542v750h524v-133h-364v-163h298v-134h-298v-187h382z" />
    <glyph glyph-name="Eacute" unicode="&#xc9;" horiz-adv-x="632" 
d="M239 861l91 176l117 -50l-102 -126h-106zM602 133v-133h-542v750h524v-133h-364v-163h298v-134h-298v-187h382z" />
    <glyph glyph-name="Ecircumflex" unicode="&#xca;" horiz-adv-x="632" 
d="M471 861h-106l-68 96l-68 -96h-106l127 186h94zM602 133v-133h-542v750h524v-133h-364v-163h298v-134h-298v-187h382z" />
    <glyph glyph-name="Edieresis" unicode="&#xcb;" horiz-adv-x="632" 
d="M271 951q0 -36 -25 -61t-61 -25q-35 0 -60 25t-25 61q0 34 25 58.5t60 24.5q36 0 61 -24t25 -59zM501 951q0 -36 -25 -61t-61 -25q-35 0 -60 25t-25 61q0 34 25 58.5t60 24.5q36 0 61 -24t25 -59zM602 133v-133h-542v750h524v-133h-364v-163h298v-134h-298v-187h382z" />
    <glyph glyph-name="Igrave" unicode="&#xcc;" horiz-adv-x="260" 
d="M201 861h-106l-102 126l117 50zM220 0h-160v750h160v-750z" />
    <glyph glyph-name="Iacute" unicode="&#xcd;" horiz-adv-x="260" 
d="M82 861l91 176l117 -50l-102 -126h-106zM220 0h-160v750h160v-750z" />
    <glyph glyph-name="Icircumflex" unicode="&#xce;" horiz-adv-x="260" 
d="M314 861h-106l-68 96l-68 -96h-106l127 186h94zM220 0h-160v750h160v-750z" />
    <glyph glyph-name="Idieresis" unicode="&#xcf;" horiz-adv-x="260" 
d="M114 951q0 -36 -25 -61t-61 -25q-35 0 -60 25t-25 61q0 34 25 58.5t60 24.5q36 0 61 -24t25 -59zM344 951q0 -36 -25 -61t-61 -25q-35 0 -60 25t-25 61q0 34 25 58.5t60 24.5q36 0 61 -24t25 -59zM220 0h-160v750h160v-750z" />
    <glyph glyph-name="Ntilde" unicode="&#xd1;" horiz-adv-x="774" 
d="M333 887q-17 0 -22.5 -12t-5.5 -41h-106q0 77 31 120.5t79 43.5q33 0 81 -26.5t66 -26.5q17 0 22.5 12t5.5 41h106q0 -77 -31 -120.5t-79 -43.5q-34 0 -81 26.5t-66 26.5zM724 0h-166l-338 495v-495h-160v750h165l339 -495v495h160v-750z" />
    <glyph glyph-name="Ograve" unicode="&#xd2;" horiz-adv-x="852" 
d="M492 861h-106l-102 126l117 50zM431 755q168 0 279.5 -105.5t111.5 -274.5t-111.5 -274.5t-279.5 -105.5t-279.5 105.5t-111.5 274.5t111.5 274.5t279.5 105.5zM431 622q-103 0 -167 -70t-64 -177q0 -108 64 -177.5t167 -69.5t167 69.5t64 177.5q0 107 -64 177t-167 70z
" />
    <glyph glyph-name="Oacute" unicode="&#xd3;" horiz-adv-x="852" 
d="M373 861l91 176l117 -50l-102 -126h-106zM431 755q168 0 279.5 -105.5t111.5 -274.5t-111.5 -274.5t-279.5 -105.5t-279.5 105.5t-111.5 274.5t111.5 274.5t279.5 105.5zM431 622q-103 0 -167 -70t-64 -177q0 -108 64 -177.5t167 -69.5t167 69.5t64 177.5q0 107 -64 177
t-167 70z" />
    <glyph glyph-name="Ocircumflex" unicode="&#xd4;" horiz-adv-x="852" 
d="M605 861h-106l-68 96l-68 -96h-106l127 186h94zM431 755q168 0 279.5 -105.5t111.5 -274.5t-111.5 -274.5t-279.5 -105.5t-279.5 105.5t-111.5 274.5t111.5 274.5t279.5 105.5zM431 622q-103 0 -167 -70t-64 -177q0 -108 64 -177.5t167 -69.5t167 69.5t64 177.5
q0 107 -64 177t-167 70z" />
    <glyph glyph-name="Otilde" unicode="&#xd5;" horiz-adv-x="852" 
d="M369 887q-17 0 -22.5 -12t-5.5 -41h-106q0 77 31 120.5t79 43.5q33 0 81 -26.5t66 -26.5q17 0 22.5 12t5.5 41h106q0 -77 -31 -120.5t-79 -43.5q-34 0 -81 26.5t-66 26.5zM431 755q168 0 279.5 -105.5t111.5 -274.5t-111.5 -274.5t-279.5 -105.5t-279.5 105.5
t-111.5 274.5t111.5 274.5t279.5 105.5zM431 622q-103 0 -167 -70t-64 -177q0 -108 64 -177.5t167 -69.5t167 69.5t64 177.5q0 107 -64 177t-167 70z" />
    <glyph glyph-name="Odieresis" unicode="&#xd6;" horiz-adv-x="852" 
d="M405 951q0 -36 -25 -61t-61 -25q-35 0 -60 25t-25 61q0 34 25 58.5t60 24.5q36 0 61 -24t25 -59zM635 951q0 -36 -25 -61t-61 -25q-35 0 -60 25t-25 61q0 34 25 58.5t60 24.5q36 0 61 -24t25 -59zM431 755q168 0 279.5 -105.5t111.5 -274.5t-111.5 -274.5t-279.5 -105.5
t-279.5 105.5t-111.5 274.5t111.5 274.5t279.5 105.5zM431 622q-103 0 -167 -70t-64 -177q0 -108 64 -177.5t167 -69.5t167 69.5t64 177.5q0 107 -64 177t-167 70z" />
    <glyph glyph-name="multiply" unicode="&#xd7;" horiz-adv-x="472" 
d="M236 160l-89 -89l-88 87l89 89l-89 89l88 88l89 -89l89 89l88 -88l-89 -89l89 -89l-88 -87z" />
    <glyph glyph-name="Ugrave" unicode="&#xd9;" horiz-adv-x="720" 
d="M437 861h-106l-102 126l117 50zM680 750v-451q0 -41 -7 -79.5t-27.5 -81.5t-53 -74.5t-89.5 -52t-132 -20.5q-74 0 -131.5 20.5t-90.5 52t-54 74.5t-28 81.5t-7 79.5v451h160v-451q0 -16 1.5 -33t10.5 -44t24 -47.5t45 -35.5t70 -15t70 15t44.5 35t23 48t10 44t1.5 33
v451h160z" />
    <glyph glyph-name="Uacute" unicode="&#xda;" horiz-adv-x="720" 
d="M318 861l91 176l117 -50l-102 -126h-106zM680 750v-451q0 -41 -7 -79.5t-27.5 -81.5t-53 -74.5t-89.5 -52t-132 -20.5q-74 0 -131.5 20.5t-90.5 52t-54 74.5t-28 81.5t-7 79.5v451h160v-451q0 -16 1.5 -33t10.5 -44t24 -47.5t45 -35.5t70 -15t70 15t44.5 35t23 48t10 44
t1.5 33v451h160z" />
    <glyph glyph-name="Ucircumflex" unicode="&#xdb;" horiz-adv-x="720" 
d="M550 861h-106l-68 96l-68 -96h-106l127 186h94zM680 750v-451q0 -41 -7 -79.5t-27.5 -81.5t-53 -74.5t-89.5 -52t-132 -20.5q-74 0 -131.5 20.5t-90.5 52t-54 74.5t-28 81.5t-7 79.5v451h160v-451q0 -16 1.5 -33t10.5 -44t24 -47.5t45 -35.5t70 -15t70 15t44.5 35t23 48
t10 44t1.5 33v451h160z" />
    <glyph glyph-name="Udieresis" unicode="&#xdc;" horiz-adv-x="720" 
d="M350 951q0 -36 -25 -61t-61 -25q-35 0 -60 25t-25 61q0 34 25 58.5t60 24.5q36 0 61 -24t25 -59zM580 951q0 -36 -25 -61t-61 -25q-35 0 -60 25t-25 61q0 34 25 58.5t60 24.5q36 0 61 -24t25 -59zM680 750v-451q0 -41 -7 -79.5t-27.5 -81.5t-53 -74.5t-89.5 -52
t-132 -20.5q-74 0 -131.5 20.5t-90.5 52t-54 74.5t-28 81.5t-7 79.5v451h160v-451q0 -16 1.5 -33t10.5 -44t24 -47.5t45 -35.5t70 -15t70 15t44.5 35t23 48t10 44t1.5 33v451h160z" />
    <glyph glyph-name="Yacute" unicode="&#xdd;" horiz-adv-x="754" 
d="M308 861l91 176l117 -50l-102 -126h-106zM744 750l-287 -464v-286h-160v286l-287 464h174l193 -315l194 315h173z" />
    <glyph glyph-name="Thorn" unicode="&#xde;" horiz-adv-x="656" 
d="M626 381q0 -120 -79 -201t-206 -81h-131v-99h-160v750h157v-87h134q127 0 206 -81.5t79 -200.5zM329 232q62 0 99.5 43t37.5 106t-38 106t-99 43h-119v-298h119z" />
    <glyph glyph-name="germandbls" unicode="&#xdf;" horiz-adv-x="659" 
d="M274 178q2 -2 14 -11l16 -12t15 -9.5t19 -9.5t19 -5.5t22 -2.5q39 0 59.5 26t20.5 66q0 57 -50.5 89t-125.5 32v102q52 0 83.5 28t31.5 70q0 34 -19.5 57.5t-58.5 23.5q-34 0 -57.5 -18t-34 -50.5t-14.5 -64.5t-4 -74v-415h-160v415q0 167 74 253.5t194 86.5
q107 0 173.5 -53t66.5 -142q0 -62 -28.5 -103t-74.5 -57q64 -8 114 -61.5t50 -138.5t-50 -145t-153 -60q-89 0 -142 55v128z" />
    <glyph glyph-name="agrave" unicode="&#xe0;" horiz-adv-x="549" 
d="M369 614h-106l-102 126l117 50zM307 515q202 0 202 -215v-300h-155v55q-41 -60 -140 -60q-78 0 -121 40t-43 110q0 167 227 167h77q0 40 -19.5 60.5t-50.5 20.5q-52 0 -101 -42l-89 76q86 88 213 88zM354 172v28h-54q-52 0 -73.5 -12t-21.5 -39q0 -26 18 -39t47 -13
q84 0 84 75z" />
    <glyph glyph-name="aacute" unicode="&#xe1;" horiz-adv-x="549" 
d="M250 614l91 176l117 -50l-102 -126h-106zM307 515q202 0 202 -215v-300h-155v55q-41 -60 -140 -60q-78 0 -121 40t-43 110q0 167 227 167h77q0 40 -19.5 60.5t-50.5 20.5q-52 0 -101 -42l-89 76q86 88 213 88zM354 172v28h-54q-52 0 -73.5 -12t-21.5 -39q0 -26 18 -39
t47 -13q84 0 84 75z" />
    <glyph glyph-name="acircumflex" unicode="&#xe2;" horiz-adv-x="549" 
d="M482 614h-106l-68 96l-68 -96h-106l127 186h94zM307 515q202 0 202 -215v-300h-155v55q-41 -60 -140 -60q-78 0 -121 40t-43 110q0 167 227 167h77q0 40 -19.5 60.5t-50.5 20.5q-52 0 -101 -42l-89 76q86 88 213 88zM354 172v28h-54q-52 0 -73.5 -12t-21.5 -39
q0 -26 18 -39t47 -13q84 0 84 75z" />
    <glyph glyph-name="atilde" unicode="&#xe3;" horiz-adv-x="549" 
d="M246 640q-17 0 -22.5 -12t-5.5 -41h-106q0 77 31 120.5t79 43.5q34 0 81 -26.5t66 -26.5q17 0 22.5 12t5.5 41h106q0 -77 -31 -120.5t-79 -43.5q-33 0 -81 26.5t-66 26.5zM307 515q202 0 202 -215v-300h-155v55q-41 -60 -140 -60q-78 0 -121 40t-43 110q0 167 227 167h77
q0 40 -19.5 60.5t-50.5 20.5q-52 0 -101 -42l-89 76q86 88 213 88zM354 172v28h-54q-52 0 -73.5 -12t-21.5 -39q0 -26 18 -39t47 -13q84 0 84 75z" />
    <glyph glyph-name="adieresis" unicode="&#xe4;" horiz-adv-x="549" 
d="M282 704q0 -36 -25 -61t-61 -25q-35 0 -60 25t-25 61q0 34 25 58.5t60 24.5q36 0 61 -24t25 -59zM512 704q0 -36 -25 -61t-61 -25q-35 0 -60 25t-25 61q0 34 25 58.5t60 24.5q36 0 61 -24t25 -59zM307 515q202 0 202 -215v-300h-155v55q-41 -60 -140 -60q-78 0 -121 40
t-43 110q0 167 227 167h77q0 40 -19.5 60.5t-50.5 20.5q-52 0 -101 -42l-89 76q86 88 213 88zM354 172v28h-54q-52 0 -73.5 -12t-21.5 -39q0 -26 18 -39t47 -13q84 0 84 75z" />
    <glyph glyph-name="aring" unicode="&#xe5;" horiz-adv-x="549" 
d="M307 820q55 0 93 -37t38 -93t-38 -93.5t-93 -37.5q-54 0 -92 37.5t-38 93.5t38 93t92 37zM307 740q-20 0 -35 -15t-15 -35q0 -21 15 -36t35 -15q21 0 36 15t15 36q0 20 -15 35t-36 15zM307 515q202 0 202 -215v-300h-155v55q-41 -60 -140 -60q-78 0 -121 40t-43 110
q0 167 227 167h77q0 40 -19.5 60.5t-50.5 20.5q-52 0 -101 -42l-89 76q86 88 213 88zM354 172v28h-54q-52 0 -73.5 -12t-21.5 -39q0 -26 18 -39t47 -13q84 0 84 75z" />
    <glyph glyph-name="ae" unicode="&#xe6;" horiz-adv-x="955" 
d="M935 256v-51l-350 3q0 -41 34 -66t80 -25q71 0 116 48l92 -85q-87 -85 -216 -85q-110 0 -182 67v-62h-155v55q-41 -60 -140 -60q-78 0 -121 40t-43 110q0 167 227 167h77q0 40 -19.5 60.5t-50.5 20.5q-52 0 -101 -42l-89 76q86 88 213 88q131 0 177 -91q72 91 198 91
q115 0 184 -73t69 -186zM585 302h195q0 41 -27.5 66t-70.5 25q-41 0 -69 -25.5t-28 -65.5zM354 172v28h-54q-52 0 -73.5 -12t-21.5 -39q0 -26 18 -39t47 -13q84 0 84 75z" />
    <glyph glyph-name="ccedilla" unicode="&#xe7;" horiz-adv-x="517" 
d="M300 117q67 0 103 63l94 -84q-63 -86 -165 -98l-33 -49q38 7 62.5 -11.5t24.5 -55.5q0 -36 -29 -59t-68 -23q-53 0 -84 29l44 46q11 -11 28 -11q12 0 20.5 7t8.5 19t-8.5 19t-20.5 7q-17 0 -28 -11l-34 36l42 56q-97 12 -162 84.5t-65 172.5q0 109 76 185t184 76
q132 0 207 -101l-94 -84q-38 63 -103 63q-52 0 -83.5 -39.5t-31.5 -99.5t31.5 -98.5t83.5 -38.5z" />
    <glyph glyph-name="egrave" unicode="&#xe8;" horiz-adv-x="565" 
d="M355 614h-106l-102 126l117 50zM545 205l-350 3q0 -41 34 -66t80 -25q71 0 116 48l92 -85q-87 -85 -216 -85q-119 0 -190 74.5t-71 186.5t69.5 185.5t182.5 73.5q115 0 184 -73t69 -186v-51zM390 302q0 41 -27.5 66t-70.5 25q-41 0 -69 -25.5t-28 -65.5h195z" />
    <glyph glyph-name="eacute" unicode="&#xe9;" horiz-adv-x="565" 
d="M236 614l91 176l117 -50l-102 -126h-106zM545 205l-350 3q0 -41 34 -66t80 -25q71 0 116 48l92 -85q-87 -85 -216 -85q-119 0 -190 74.5t-71 186.5t69.5 185.5t182.5 73.5q115 0 184 -73t69 -186v-51zM390 302q0 41 -27.5 66t-70.5 25q-41 0 -69 -25.5t-28 -65.5h195z
" />
    <glyph glyph-name="ecircumflex" unicode="&#xea;" horiz-adv-x="565" 
d="M468 614h-106l-68 96l-68 -96h-106l127 186h94zM545 205l-350 3q0 -41 34 -66t80 -25q71 0 116 48l92 -85q-87 -85 -216 -85q-119 0 -190 74.5t-71 186.5t69.5 185.5t182.5 73.5q115 0 184 -73t69 -186v-51zM390 302q0 41 -27.5 66t-70.5 25q-41 0 -69 -25.5t-28 -65.5
h195z" />
    <glyph glyph-name="edieresis" unicode="&#xeb;" horiz-adv-x="565" 
d="M268 704q0 -36 -25 -61t-61 -25q-35 0 -60 25t-25 61q0 34 25 58.5t60 24.5q36 0 61 -24t25 -59zM498 704q0 -36 -25 -61t-61 -25q-35 0 -60 25t-25 61q0 34 25 58.5t60 24.5q36 0 61 -24t25 -59zM545 205l-350 3q0 -41 34 -66t80 -25q71 0 116 48l92 -85
q-87 -85 -216 -85q-119 0 -190 74.5t-71 186.5t69.5 185.5t182.5 73.5q115 0 184 -73t69 -186v-51zM390 302q0 41 -27.5 66t-70.5 25q-41 0 -69 -25.5t-28 -65.5h195z" />
    <glyph glyph-name="igrave" unicode="&#xec;" horiz-adv-x="225" 
d="M178 621h-106l-102 126l117 50zM195 0h-155v510h155v-510z" />
    <glyph glyph-name="iacute" unicode="&#xed;" horiz-adv-x="225" 
d="M59 621l91 176l117 -50l-102 -126h-106zM195 0h-155v510h155v-510z" />
    <glyph glyph-name="icircumflex" unicode="&#xee;" horiz-adv-x="225" 
d="M291 621h-106l-68 96l-68 -96h-106l127 186h94zM195 0h-155v510h155v-510z" />
    <glyph glyph-name="idieresis" unicode="&#xef;" horiz-adv-x="225" 
d="M91 711q0 -36 -25 -61t-61 -25q-35 0 -60 25t-25 61q0 34 25 58.5t60 24.5q36 0 61 -24t25 -59zM321 711q0 -36 -25 -61t-61 -25q-35 0 -60 25t-25 61q0 34 25 58.5t60 24.5q36 0 61 -24t25 -59zM195 0h-155v510h155v-510z" />
    <glyph glyph-name="eth" unicode="&#xf0;" 
 />
    <glyph glyph-name="ntilde" unicode="&#xf1;" horiz-adv-x="538" 
d="M202 647q-17 0 -22.5 -12t-5.5 -41h-106q0 77 31 120.5t79 43.5q34 0 81 -26.5t66 -26.5q17 0 22.5 12t5.5 41h106q0 -77 -31 -120.5t-79 -43.5q-33 0 -81 26.5t-66 26.5zM508 0h-148v296q0 56 -21 82t-65 26q-45 0 -65.5 -25.5t-20.5 -82.5v-296h-148v510h148v-57
q23 30 62.5 46t81.5 16q89 0 132 -51.5t43 -157.5z" />
    <glyph glyph-name="ograve" unicode="&#xf2;" horiz-adv-x="584" 
d="M353 614h-106l-102 126l117 50zM297 515q112 0 189.5 -70.5t77.5 -190.5t-77.5 -189.5t-189.5 -69.5t-189.5 69.5t-77.5 189.5t77.5 190.5t189.5 70.5zM297 393q-55 0 -83.5 -38t-28.5 -101q0 -62 28.5 -99.5t83.5 -37.5t83.5 37.5t28.5 99.5q0 63 -28.5 101t-83.5 38z
" />
    <glyph glyph-name="oacute" unicode="&#xf3;" horiz-adv-x="584" 
d="M234 614l91 176l117 -50l-102 -126h-106zM297 515q112 0 189.5 -70.5t77.5 -190.5t-77.5 -189.5t-189.5 -69.5t-189.5 69.5t-77.5 189.5t77.5 190.5t189.5 70.5zM297 393q-55 0 -83.5 -38t-28.5 -101q0 -62 28.5 -99.5t83.5 -37.5t83.5 37.5t28.5 99.5q0 63 -28.5 101
t-83.5 38z" />
    <glyph glyph-name="ocircumflex" unicode="&#xf4;" horiz-adv-x="584" 
d="M466 614h-106l-68 96l-68 -96h-106l127 186h94zM297 515q112 0 189.5 -70.5t77.5 -190.5t-77.5 -189.5t-189.5 -69.5t-189.5 69.5t-77.5 189.5t77.5 190.5t189.5 70.5zM297 393q-55 0 -83.5 -38t-28.5 -101q0 -62 28.5 -99.5t83.5 -37.5t83.5 37.5t28.5 99.5
q0 63 -28.5 101t-83.5 38z" />
    <glyph glyph-name="otilde" unicode="&#xf5;" horiz-adv-x="584" 
d="M230 640q-17 0 -22.5 -12t-5.5 -41h-106q0 77 31 120.5t79 43.5q34 0 81 -26.5t66 -26.5q17 0 22.5 12t5.5 41h106q0 -77 -31 -120.5t-79 -43.5q-33 0 -80.5 26.5t-66.5 26.5zM297 515q112 0 189.5 -70.5t77.5 -190.5t-77.5 -189.5t-189.5 -69.5t-189.5 69.5t-77.5 189.5
t77.5 190.5t189.5 70.5zM297 393q-55 0 -83.5 -38t-28.5 -101q0 -62 28.5 -99.5t83.5 -37.5t83.5 37.5t28.5 99.5q0 63 -28.5 101t-83.5 38z" />
    <glyph glyph-name="odieresis" unicode="&#xf6;" horiz-adv-x="584" 
d="M266 704q0 -36 -25 -61t-61 -25q-35 0 -60 25t-25 61q0 34 25 58.5t60 24.5q36 0 61 -24t25 -59zM496 704q0 -36 -25 -61t-61 -25q-35 0 -60 25t-25 61q0 34 25 58.5t60 24.5q36 0 61 -24t25 -59zM297 515q112 0 189.5 -70.5t77.5 -190.5t-77.5 -189.5t-189.5 -69.5
t-189.5 69.5t-77.5 189.5t77.5 190.5t189.5 70.5zM297 393q-55 0 -83.5 -38t-28.5 -101q0 -62 28.5 -99.5t83.5 -37.5t83.5 37.5t28.5 99.5q0 63 -28.5 101t-83.5 38z" />
    <glyph glyph-name="divide" unicode="&#xf7;" 
 />
    <glyph glyph-name="ugrave" unicode="&#xf9;" horiz-adv-x="538" 
d="M346 614h-106l-102 126l117 50zM40 510h148v-296q0 -56 21 -82t65 -26q45 0 65.5 25.5t20.5 82.5v296h148v-510h-148v57q-23 -30 -62.5 -46t-81.5 -16q-89 0 -132 51.5t-43 157.5z" />
    <glyph glyph-name="uacute" unicode="&#xfa;" horiz-adv-x="538" 
d="M227 614l91 176l117 -50l-102 -126h-106zM40 510h148v-296q0 -56 21 -82t65 -26q45 0 65.5 25.5t20.5 82.5v296h148v-510h-148v57q-23 -30 -62.5 -46t-81.5 -16q-89 0 -132 51.5t-43 157.5z" />
    <glyph glyph-name="ucircumflex" unicode="&#xfb;" horiz-adv-x="538" 
d="M459 614h-106l-68 96l-68 -96h-106l127 186h94zM40 510h148v-296q0 -56 21 -82t65 -26q45 0 65.5 25.5t20.5 82.5v296h148v-510h-148v57q-23 -30 -62.5 -46t-81.5 -16q-89 0 -132 51.5t-43 157.5z" />
    <glyph glyph-name="udieresis" unicode="&#xfc;" horiz-adv-x="538" 
d="M259 704q0 -36 -25 -61t-61 -25q-35 0 -60 25t-25 61q0 34 25 58.5t60 24.5q36 0 61 -24t25 -59zM489 704q0 -36 -25 -61t-61 -25q-35 0 -60 25t-25 61q0 34 25 58.5t60 24.5q36 0 61 -24t25 -59zM40 510h148v-296q0 -56 21 -82t65 -26q45 0 65.5 25.5t20.5 82.5v296h148
v-510h-148v57q-23 -30 -62.5 -46t-81.5 -16q-89 0 -132 51.5t-43 157.5z" />
    <glyph glyph-name="yacute" unicode="&#xfd;" horiz-adv-x="569" 
d="M231 621l91 176l117 -50l-102 -126h-106zM559 510l-168 -418q-62 -152 -105.5 -201.5t-119.5 -49.5q-31 0 -66.5 13t-58.5 37l23 97q50 -26 83 -26q18 0 31 11t19 37.5t-8 71.5l-169 428h154l116 -321l115 321h154z" />
    <glyph glyph-name="thorn" unicode="&#xfe;" horiz-adv-x="604" 
d="M359 -5q-109 0 -164 73v-253h-155v965h155v-338q55 73 164 73q99 0 162 -68t63 -192q0 -119 -64 -189.5t-161 -70.5zM322 393q-48 0 -77.5 -38.5t-29.5 -99.5t29.5 -99.5t77.5 -38.5t77.5 38.5t29.5 99.5t-29.5 99.5t-77.5 38.5z" />
    <glyph glyph-name="ydieresis" unicode="&#xff;" horiz-adv-x="569" 
d="M263 711q0 -36 -25 -61t-61 -25q-35 0 -60 25t-25 61q0 34 25 58.5t60 24.5q36 0 61 -24t25 -59zM493 711q0 -36 -25 -61t-61 -25q-35 0 -60 25t-25 61q0 34 25 58.5t60 24.5q36 0 61 -24t25 -59zM559 510l-168 -418q-62 -152 -105.5 -201.5t-119.5 -49.5q-31 0 -66.5 13
t-58.5 37l23 97q50 -26 83 -26q18 0 31 11t19 37.5t-8 71.5l-169 428h154l116 -321l115 321h154z" />
    <glyph glyph-name="Amacron" unicode="&#x100;" horiz-adv-x="744" 
d="M560 961v-124h-376v124h376zM577 0l-56 141h-298l-56 -141h-157l298 750h128l298 -750h-157zM277 274h190l-95 238z" />
    <glyph glyph-name="amacron" unicode="&#x101;" horiz-adv-x="549" 
d="M496 590h-376v124h376v-124zM307 515q202 0 202 -215v-300h-155v55q-41 -60 -140 -60q-78 0 -121 40t-43 110q0 167 227 167h77q0 40 -19.5 60.5t-50.5 20.5q-52 0 -101 -42l-89 76q86 88 213 88zM354 172v28h-54q-52 0 -73.5 -12t-21.5 -39q0 -26 18 -39t47 -13
q84 0 84 75z" />
    <glyph glyph-name="Abreve" unicode="&#x102;" horiz-adv-x="744" 
d="M372 864q-73 0 -128 49t-55 134h106q0 -87 77 -87t77 87h106q0 -85 -54.5 -134t-128.5 -49zM577 0l-56 141h-298l-56 -141h-157l298 750h128l298 -750h-157zM277 274h190l-95 238z" />
    <glyph glyph-name="abreve" unicode="&#x103;" horiz-adv-x="549" 
d="M491 800q0 -85 -54.5 -134t-128.5 -49q-73 0 -128 49t-55 134h106q0 -87 77 -87t77 87h106zM307 515q202 0 202 -215v-300h-155v55q-41 -60 -140 -60q-78 0 -121 40t-43 110q0 167 227 167h77q0 40 -19.5 60.5t-50.5 20.5q-52 0 -101 -42l-89 76q86 88 213 88zM354 172
v28h-54q-52 0 -73.5 -12t-21.5 -39q0 -26 18 -39t47 -13q84 0 84 75z" />
    <glyph glyph-name="Aogonek" unicode="&#x104;" horiz-adv-x="744" 
d="M637 -66q0 -18 17.5 -28t45.5 -10v-86q-79 0 -121.5 26.5t-42.5 73.5q0 50 66 90h-25l-56 141h-298l-56 -141h-157l298 750h128l298 -750h-54q-43 -43 -43 -66zM277 274h190l-95 238z" />
    <glyph glyph-name="aogonek" unicode="&#x105;" horiz-adv-x="549" 
d="M448 -66q0 -18 17.5 -28t45.5 -10v-86q-79 0 -121.5 26.5t-42.5 73.5q0 50 66 90h-59v55q-41 -60 -140 -60q-78 0 -121 40t-43 110q0 167 227 167h77q0 40 -19.5 60.5t-50.5 20.5q-52 0 -101 -42l-89 76q86 88 213 88q202 0 202 -215v-300h-18q-43 -43 -43 -66zM354 172
v28h-54q-52 0 -73.5 -12t-21.5 -39q0 -26 18 -39t47 -13q84 0 84 75z" />
    <glyph glyph-name="Cacute" unicode="&#x106;" horiz-adv-x="759" 
d="M373 861l91 176l117 -50l-102 -126h-106zM729 159q-44 -78 -125 -121t-173 -43q-160 0 -275.5 111t-115.5 269t115.5 269t275.5 111q92 0 173 -43.5t125 -121.5l-108 -78q-73 110 -192 110q-100 0 -164.5 -70.5t-64.5 -176.5t64.5 -176.5t164.5 -70.5q118 0 192 109z" />
    <glyph glyph-name="cacute" unicode="&#x107;" horiz-adv-x="517" 
d="M232 621l91 176l117 -50l-102 -126h-106zM497 96q-75 -101 -207 -101q-108 0 -184 75t-76 184t76 185t184 76q132 0 207 -101l-94 -84q-38 63 -103 63q-52 0 -83.5 -39.5t-31.5 -99.5t31.5 -98.5t83.5 -38.5q67 0 103 63z" />
    <glyph glyph-name="Ccaron" unicode="&#x10c;" horiz-adv-x="759" 
d="M605 1047l-127 -186h-94l-127 186h106l68 -96l68 96h106zM729 159q-44 -78 -125 -121t-173 -43q-160 0 -275.5 111t-115.5 269t115.5 269t275.5 111q92 0 173 -43.5t125 -121.5l-108 -78q-73 110 -192 110q-100 0 -164.5 -70.5t-64.5 -176.5t64.5 -176.5t164.5 -70.5
q118 0 192 109z" />
    <glyph glyph-name="ccaron" unicode="&#x10d;" horiz-adv-x="517" 
d="M464 807l-127 -186h-94l-127 186h106l68 -96l68 96h106zM497 96q-75 -101 -207 -101q-108 0 -184 75t-76 184t76 185t184 76q132 0 207 -101l-94 -84q-38 63 -103 63q-52 0 -83.5 -39.5t-31.5 -99.5t31.5 -98.5t83.5 -38.5q67 0 103 63z" />
    <glyph glyph-name="Dcaron" unicode="&#x10e;" horiz-adv-x="747" 
d="M515 1047l-127 -186h-94l-127 186h106l68 -96l68 96h106zM717 375q0 -155 -107 -264.5t-259 -110.5h-301v750h301q152 -1 259 -110.5t107 -264.5zM350 133q89 1 148 74t59 168q0 94 -59 167.5t-148 74.5h-140v-484h140z" />
    <glyph glyph-name="dcaron" unicode="&#x10f;" horiz-adv-x="787" 
d="M255 515q109 0 164 -73v338h155v-780h-155v68q-55 -73 -164 -73q-99 0 -162 68t-63 192q0 119 64 189.5t161 70.5zM755 510h-133l-13 270h159zM302 117q55 0 86 38t31 100t-31 100t-86 38t-86 -38t-31 -100t31 -100t86 -38z" />
    <glyph glyph-name="Emacron" unicode="&#x112;" horiz-adv-x="632" 
d="M485 837h-376v124h376v-124zM602 133v-133h-542v750h524v-133h-364v-163h298v-134h-298v-187h382z" />
    <glyph glyph-name="emacron" unicode="&#x113;" horiz-adv-x="565" 
d="M482 590h-376v124h376v-124zM545 205l-350 3q0 -41 34 -66t80 -25q71 0 116 48l92 -85q-87 -85 -216 -85q-119 0 -190 74.5t-71 186.5t69.5 185.5t182.5 73.5q115 0 184 -73t69 -186v-51zM390 302q0 41 -27.5 66t-70.5 25q-41 0 -69 -25.5t-28 -65.5h195z" />
    <glyph glyph-name="Edotaccent" unicode="&#x116;" horiz-adv-x="632" 
d="M383 951q0 -36 -25 -61t-61 -25q-35 0 -60 25t-25 61q0 34 25 58.5t60 24.5q36 0 61 -24t25 -59zM602 133v-133h-542v750h524v-133h-364v-163h298v-134h-298v-187h382z" />
    <glyph glyph-name="edotaccent" unicode="&#x117;" horiz-adv-x="565" 
d="M380 704q0 -36 -25 -61t-61 -25q-35 0 -60 25t-25 61q0 34 25 58.5t60 24.5q36 0 61 -24t25 -59zM545 205l-350 3q0 -41 34 -66t80 -25q71 0 116 48l92 -85q-87 -85 -216 -85q-119 0 -190 74.5t-71 186.5t69.5 185.5t182.5 73.5q115 0 184 -73t69 -186v-51zM390 302
q0 41 -27.5 66t-70.5 25q-41 0 -69 -25.5t-28 -65.5h195z" />
    <glyph glyph-name="Eogonek" unicode="&#x118;" horiz-adv-x="632" 
d="M566 0q-43 -43 -43 -66q0 -18 17.5 -28t45.5 -10v-86q-79 0 -121.5 26.5t-42.5 73.5q0 50 66 90h-428v750h524v-133h-364v-163h298v-134h-298v-187h382v-133h-36z" />
    <glyph glyph-name="eogonek" unicode="&#x119;" horiz-adv-x="565" 
d="M545 256v-51l-350 3q0 -41 34 -66t80 -25q71 0 116 48l92 -85q-70 -68 -165 -81q-51 -51 -51 -75q0 -18 17.5 -28t45.5 -10v-86q-79 0 -121.5 26.5t-42.5 73.5q0 53 76 96q-108 8 -172 81t-64 179q0 112 69.5 185.5t182.5 73.5q115 0 184 -73t69 -186zM195 302h195
q0 41 -27.5 66t-70.5 25q-41 0 -69 -25.5t-28 -65.5z" />
    <glyph glyph-name="Ecaron" unicode="&#x11a;" horiz-adv-x="632" 
d="M471 1047l-127 -186h-94l-127 186h106l68 -96l68 96h106zM602 133v-133h-542v750h524v-133h-364v-163h298v-134h-298v-187h382z" />
    <glyph glyph-name="ecaron" unicode="&#x11b;" horiz-adv-x="565" 
d="M468 800l-127 -186h-94l-127 186h106l68 -96l68 96h106zM545 205l-350 3q0 -41 34 -66t80 -25q71 0 116 48l92 -85q-87 -85 -216 -85q-119 0 -190 74.5t-71 186.5t69.5 185.5t182.5 73.5q115 0 184 -73t69 -186v-51zM390 302q0 41 -27.5 66t-70.5 25q-41 0 -69 -25.5
t-28 -65.5h195z" />
    <glyph glyph-name="Gcommaaccent" unicode="&#x122;" horiz-adv-x="860" 
d="M820 431v-431h-160v115q-33 -58 -97 -91t-148 -33q-153 0 -259 110.5t-106 273.5q0 162 110 272.5t270 110.5q86 0 164.5 -34t136.5 -98l-105 -105q-29 42 -82.5 73t-113.5 31q-106 0 -163 -73t-57 -177q0 -105 58 -178t166 -73q94 0 156 50.5t62 133.5h-174v123h342z
M518 -125q0 -32 -33 -76l-88 -115h-41l37 115q-45 23 -45 76q0 35 25 59.5t59 24.5q36 0 61 -24.5t25 -59.5z" />
    <glyph glyph-name="gcommaaccent" unicode="&#x123;" horiz-adv-x="604" 
d="M327 556q-36 0 -61 24.5t-25 59.5q0 32 33 76l88 115h41l-37 -115q45 -23 45 -76q0 -34 -24.5 -59t-59.5 -25zM419 510h155v-448q0 -68 -21 -118t-58 -78.5t-81.5 -42t-96.5 -13.5q-144 0 -278 65l68 99q109 -42 180 -42q132 0 132 136q-55 -73 -164 -73q-97 0 -161 70.5
t-64 189.5q0 124 63 192t162 68q109 0 164 -73v68zM302 117q55 0 86 38t31 100t-31 100t-86 38t-86 -38t-31 -100t31 -100t86 -38z" />
    <glyph glyph-name="Imacron" unicode="&#x12a;" horiz-adv-x="260" 
d="M328 837h-376v124h376v-124zM220 0h-160v750h160v-750z" />
    <glyph glyph-name="imacron" unicode="&#x12b;" horiz-adv-x="225" 
d="M305 597h-376v124h376v-124zM195 0h-155v510h155v-510z" />
    <glyph glyph-name="Iogonek" unicode="&#x12e;" horiz-adv-x="260" 
d="M190 0q-53 -51 -53 -76q0 -18 17.5 -28t45.5 -10v-86q-79 0 -121.5 26.5t-42.5 73.5q0 55 83 100h-59v750h160v-750h-30z" />
    <glyph glyph-name="iogonek" unicode="&#x12f;" horiz-adv-x="225" 
d="M117 625q-35 0 -60 25t-25 61q0 34 25 58.5t60 24.5q36 0 61 -24t25 -59q0 -36 -25 -61t-61 -25zM40 0v510h155v-510h-23q-53 -51 -53 -76q0 -18 17.5 -28t45.5 -10v-86q-79 0 -121.5 26.5t-42.5 73.5q0 55 83 100h-61z" />
    <glyph glyph-name="dotlessi" unicode="&#x131;" horiz-adv-x="225" 
d="M195 0h-155v510h155v-510z" />
    <glyph glyph-name="Kcommaaccent" unicode="&#x136;" horiz-adv-x="776" 
d="M407 433l329 -433h-186l-260 342l-70 -61v-281h-160v750h160v-289l310 289h206zM447 -125q0 -32 -33 -76l-88 -115h-41l37 115q-45 23 -45 76q0 35 24.5 59.5t59.5 24.5q36 0 61 -24.5t25 -59.5z" />
    <glyph glyph-name="kcommaaccent" unicode="&#x137;" horiz-adv-x="598" 
d="M226 220l-31 -26v-194h-155v780h155v-430l185 160h208l-245 -216l245 -294h-181zM373 -125q0 -32 -33 -76l-88 -115h-41l37 115q-45 23 -45 76q0 35 24.5 59.5t59.5 24.5q36 0 61 -24.5t25 -59.5z" />
    <glyph glyph-name="Lacute" unicode="&#x139;" horiz-adv-x="565" 
d="M84 810l91 176l117 -50l-102 -126h-106zM535 133v-133h-475v750h160v-617h315z" />
    <glyph glyph-name="lacute" unicode="&#x13a;" horiz-adv-x="245" 
d="M48 820l91 176l117 -50l-102 -126h-106zM205 0h-155v780h155v-780z" />
    <glyph glyph-name="Lcommaaccent" unicode="&#x13b;" horiz-adv-x="565" 
d="M535 133v-133h-475v750h160v-617h315zM388 -125q0 -32 -33 -76l-88 -115h-41l37 115q-45 23 -45 76q0 35 25 59.5t59 24.5q36 0 61 -24.5t25 -59.5z" />
    <glyph glyph-name="lcommaaccent" unicode="&#x13c;" horiz-adv-x="245" 
d="M205 0h-155v780h155v-780zM213 -125q0 -32 -33 -76l-88 -115h-41l37 115q-45 23 -45 76q0 35 24.5 59.5t59.5 24.5q36 0 61 -24.5t25 -59.5z" />
    <glyph glyph-name="Lcaron" unicode="&#x13d;" horiz-adv-x="565" 
d="M465 510h-133l-13 270h159zM535 133v-133h-475v750h160v-617h315z" />
    <glyph glyph-name="lcaron" unicode="&#x13e;" horiz-adv-x="417" 
d="M205 0h-155v780h155v-780zM375 510h-133l-13 270h159z" />
    <glyph glyph-name="Nacute" unicode="&#x143;" horiz-adv-x="774" 
d="M337 861l91 176l117 -50l-102 -126h-106zM724 0h-166l-338 495v-495h-160v750h165l339 -495v495h160v-750z" />
    <glyph glyph-name="nacute" unicode="&#x144;" horiz-adv-x="538" 
d="M206 621l91 176l117 -50l-102 -126h-106zM508 0h-148v296q0 56 -21 82t-65 26q-45 0 -65.5 -25.5t-20.5 -82.5v-296h-148v510h148v-57q23 30 62.5 46t81.5 16q89 0 132 -51.5t43 -157.5z" />
    <glyph glyph-name="Ncommaaccent" unicode="&#x145;" horiz-adv-x="774" 
d="M724 0h-166l-338 495v-495h-160v750h165l339 -495v495h160v-750zM480 -125q0 -32 -33 -76l-88 -115h-41l37 115q-45 23 -45 76q0 35 25 59.5t59 24.5q36 0 61 -24.5t25 -59.5z" />
    <glyph glyph-name="ncommaaccent" unicode="&#x146;" horiz-adv-x="538" 
d="M508 0h-148v296q0 56 -21 82t-65 26q-45 0 -65.5 -25.5t-20.5 -82.5v-296h-148v510h148v-57q23 30 62.5 46t81.5 16q89 0 132 -51.5t43 -157.5zM359 -125q0 -32 -33 -76l-88 -115h-41l37 115q-45 23 -45 76q0 35 24.5 59.5t59.5 24.5q36 0 61 -24.5t25 -59.5z" />
    <glyph glyph-name="Ncaron" unicode="&#x147;" horiz-adv-x="774" 
d="M569 1047l-127 -186h-94l-127 186h106l68 -96l68 96h106zM724 0h-166l-338 495v-495h-160v750h165l339 -495v495h160v-750z" />
    <glyph glyph-name="ncaron" unicode="&#x148;" horiz-adv-x="538" 
d="M438 807l-127 -186h-94l-127 186h106l68 -96l68 96h106zM508 0h-148v296q0 56 -21 82t-65 26q-45 0 -65.5 -25.5t-20.5 -82.5v-296h-148v510h148v-57q23 30 62.5 46t81.5 16q89 0 132 -51.5t43 -157.5z" />
    <glyph glyph-name="Eng" unicode="&#x14a;" 
 />
    <glyph glyph-name="eng" unicode="&#x14b;" 
 />
    <glyph glyph-name="Omacron" unicode="&#x14c;" horiz-adv-x="852" 
d="M619 837h-376v124h376v-124zM431 755q168 0 279.5 -105.5t111.5 -274.5t-111.5 -274.5t-279.5 -105.5t-279.5 105.5t-111.5 274.5t111.5 274.5t279.5 105.5zM431 622q-103 0 -167 -70t-64 -177q0 -108 64 -177.5t167 -69.5t167 69.5t64 177.5q0 107 -64 177t-167 70z" />
    <glyph glyph-name="omacron" unicode="&#x14d;" horiz-adv-x="584" 
d="M480 590h-376v124h376v-124zM297 515q112 0 189.5 -70.5t77.5 -190.5t-77.5 -189.5t-189.5 -69.5t-189.5 69.5t-77.5 189.5t77.5 190.5t189.5 70.5zM297 393q-55 0 -83.5 -38t-28.5 -101q0 -62 28.5 -99.5t83.5 -37.5t83.5 37.5t28.5 99.5q0 63 -28.5 101t-83.5 38z" />
    <glyph glyph-name="Ohungarumlaut" unicode="&#x150;" horiz-adv-x="852" 
d="M247 861l91 176l117 -50l-102 -126h-106zM451 861l91 176l117 -50l-102 -126h-106zM431 755q168 0 279.5 -105.5t111.5 -274.5t-111.5 -274.5t-279.5 -105.5t-279.5 105.5t-111.5 274.5t111.5 274.5t279.5 105.5zM431 622q-103 0 -167 -70t-64 -177q0 -108 64 -177.5
t167 -69.5t167 69.5t64 177.5q0 107 -64 177t-167 70z" />
    <glyph glyph-name="ohungarumlaut" unicode="&#x151;" horiz-adv-x="584" 
d="M108 614l91 176l117 -50l-102 -126h-106zM312 614l91 176l117 -50l-102 -126h-106zM297 515q112 0 189.5 -70.5t77.5 -190.5t-77.5 -189.5t-189.5 -69.5t-189.5 69.5t-77.5 189.5t77.5 190.5t189.5 70.5zM297 393q-55 0 -83.5 -38t-28.5 -101q0 -62 28.5 -99.5
t83.5 -37.5t83.5 37.5t28.5 99.5q0 63 -28.5 101t-83.5 38z" />
    <glyph glyph-name="OE" unicode="&#x152;" horiz-adv-x="1268" 
d="M880 133h382v-133h-542v110q-112 -115 -289 -115q-168 0 -279.5 105.5t-111.5 274.5t111.5 274.5t279.5 105.5q177 0 289 -115v110h524v-133h-364v-163h298v-134h-298v-187zM431 128q103 0 167 69.5t64 177.5q0 107 -64 177t-167 70t-167 -70t-64 -177q0 -108 64 -177.5
t167 -69.5z" />
    <glyph glyph-name="oe" unicode="&#x153;" horiz-adv-x="975" 
d="M954 256v-51l-350 3q0 -41 34 -66t80 -25q71 0 116 48l92 -85q-87 -85 -216 -85q-130 0 -204 90q-76 -90 -209 -90q-112 0 -189.5 69.5t-77.5 189.5t77.5 190.5t189.5 70.5q132 0 208 -90q71 90 196 90q115 0 184 -73t69 -186zM297 117q55 0 83.5 37.5t28.5 99.5
q0 63 -28.5 101t-83.5 38t-83.5 -38t-28.5 -101q0 -62 28.5 -99.5t83.5 -37.5zM604 302h195q0 41 -27.5 66t-70.5 25q-41 0 -69 -25.5t-28 -65.5z" />
    <glyph glyph-name="Racute" unicode="&#x154;" horiz-adv-x="687" 
d="M261 861l91 176l117 -50l-102 -126h-106zM637 477q0 -78 -38 -141t-103 -98l161 -238h-178l-137 204h-122v-204h-160v750h300q116 0 196.5 -78.5t80.5 -194.5zM220 337h129q62 0 95 38.5t33 101.5t-33 101.5t-95 38.5h-129v-280z" />
    <glyph glyph-name="racute" unicode="&#x155;" horiz-adv-x="409" 
d="M163 614l91 176l117 -50l-102 -126h-106zM377 361q-32 32 -74 32q-63 0 -85.5 -45t-22.5 -142v-206h-155v510h155v-84q25 89 124 89q52 0 80 -35z" />
    <glyph glyph-name="Rcommaaccent" unicode="&#x156;" horiz-adv-x="687" 
d="M637 477q0 -78 -38 -141t-103 -98l161 -238h-178l-137 204h-122v-204h-160v750h300q116 0 196.5 -78.5t80.5 -194.5zM220 337h129q62 0 95 38.5t33 101.5t-33 101.5t-95 38.5h-129v-280zM434 -125q0 -32 -33 -76l-88 -115h-41l37 115q-45 23 -45 76q0 35 25 59.5t59 24.5
q36 0 61 -24.5t25 -59.5z" />
    <glyph glyph-name="rcommaaccent" unicode="&#x157;" horiz-adv-x="409" 
d="M377 361q-32 32 -74 32q-63 0 -85.5 -45t-22.5 -142v-206h-155v510h155v-84q25 89 124 89q52 0 80 -35zM229 -125q0 -32 -33 -76l-88 -115h-41l37 115q-45 23 -45 76q0 35 24.5 59.5t59.5 24.5q36 0 61 -24.5t25 -59.5z" />
    <glyph glyph-name="Rcaron" unicode="&#x158;" horiz-adv-x="687" 
d="M493 1047l-127 -186h-94l-127 186h106l68 -96l68 96h106zM637 477q0 -78 -38 -141t-103 -98l161 -238h-178l-137 204h-122v-204h-160v750h300q116 0 196.5 -78.5t80.5 -194.5zM220 337h129q62 0 95 38.5t33 101.5t-33 101.5t-95 38.5h-129v-280z" />
    <glyph glyph-name="rcaron" unicode="&#x159;" horiz-adv-x="409" 
d="M395 800l-127 -186h-94l-127 186h106l68 -96l68 96h106zM377 361q-32 32 -74 32q-63 0 -85.5 -45t-22.5 -142v-206h-155v510h155v-84q25 89 124 89q52 0 80 -35z" />
    <glyph glyph-name="Sacute" unicode="&#x15a;" horiz-adv-x="643" 
d="M255 861l91 176l117 -50l-102 -126h-106zM366 443q124 -46 187 -98t63 -138q0 -71 -38.5 -121t-98 -72.5t-132.5 -22.5q-93 0 -175.5 33.5t-141.5 97.5l105 104q104 -102 202 -102q52 0 85.5 21t33.5 62q0 16 -7 29.5t-16 23t-29 20.5t-34 17.5t-44 19t-47 19.5
q-44 19 -70 33t-64 41t-57.5 62.5t-19.5 78.5q0 97 76.5 152t182.5 55q89 0 166.5 -32t129.5 -86l-96 -101q-34 32 -89 59t-112 27q-19 0 -38 -4t-39.5 -21t-20.5 -46q0 -33 31 -58t107 -53z" />
    <glyph glyph-name="sacute" unicode="&#x15b;" horiz-adv-x="459" 
d="M176 621l91 176l117 -50l-102 -126h-106zM206 363q0 -18 18 -31.5t78 -41.5q65 -29 99 -64t34 -86q0 -68 -53 -106.5t-136 -38.5q-61 0 -124 25t-102 69l90 90q61 -62 123 -62q47 0 47 32q0 22 -22 38t-81 45q-67 33 -96.5 65.5t-29.5 77.5q0 50 33 83.5t72.5 45
t80.5 11.5q57 0 112 -21t90 -62l-87 -87q-46 48 -102 48q-16 0 -30 -8t-14 -22z" />
    <glyph glyph-name="Scedilla" unicode="&#x15e;" horiz-adv-x="643" 
d="M366 443q124 -46 187 -98t63 -138q0 -104 -76.5 -159.5t-189.5 -56.5l-29 -42q38 7 62.5 -11.5t24.5 -55.5q0 -36 -29 -59t-68 -23q-53 0 -84 29l44 46q11 -11 28 -11q12 0 20.5 7t8.5 19t-8.5 19t-20.5 7q-17 0 -28 -11l-34 36l41 55q-152 22 -248 126l105 104
q104 -102 202 -102q52 0 85.5 21t33.5 62q0 16 -7 29.5t-16 23t-29 20.5t-34 17.5t-44 19t-47 19.5q-44 19 -70 33t-64 41t-57.5 62.5t-19.5 78.5q0 97 76.5 152t182.5 55q89 0 166.5 -32t129.5 -86l-96 -101q-34 32 -89 59t-112 27q-19 0 -38 -4t-39.5 -21t-20.5 -46
q0 -33 31 -58t107 -53z" />
    <glyph glyph-name="scedilla" unicode="&#x15f;" horiz-adv-x="459" 
d="M302 290q65 -29 99 -64t34 -86q0 -62 -44.5 -99.5t-116.5 -44.5l-32 -47q38 7 62.5 -11.5t24.5 -55.5q0 -36 -29 -59t-68 -23q-53 0 -84 29l44 46q11 -11 28 -11q12 0 20.5 7t8.5 19t-8.5 19t-20.5 7q-17 0 -28 -11l-34 36l43 57q-51 8 -100 31.5t-81 59.5l90 90
q61 -62 123 -62q47 0 47 32q0 22 -22 38t-81 45q-67 33 -96.5 65.5t-29.5 77.5q0 50 33 83.5t72.5 45t80.5 11.5q57 0 112 -21t90 -62l-87 -87q-46 48 -102 48q-16 0 -30 -8t-14 -22q0 -18 18 -31.5t78 -41.5z" />
    <glyph glyph-name="Scaron" unicode="&#x160;" horiz-adv-x="643" 
d="M487 1047l-127 -186h-94l-127 186h106l68 -96l68 96h106zM366 443q124 -46 187 -98t63 -138q0 -71 -38.5 -121t-98 -72.5t-132.5 -22.5q-93 0 -175.5 33.5t-141.5 97.5l105 104q104 -102 202 -102q52 0 85.5 21t33.5 62q0 16 -7 29.5t-16 23t-29 20.5t-34 17.5t-44 19
t-47 19.5q-44 19 -70 33t-64 41t-57.5 62.5t-19.5 78.5q0 97 76.5 152t182.5 55q89 0 166.5 -32t129.5 -86l-96 -101q-34 32 -89 59t-112 27q-19 0 -38 -4t-39.5 -21t-20.5 -46q0 -33 31 -58t107 -53z" />
    <glyph glyph-name="scaron" unicode="&#x161;" horiz-adv-x="459" 
d="M408 807l-127 -186h-94l-127 186h106l68 -96l68 96h106zM206 363q0 -18 18 -31.5t78 -41.5q65 -29 99 -64t34 -86q0 -68 -53 -106.5t-136 -38.5q-61 0 -124 25t-102 69l90 90q61 -62 123 -62q47 0 47 32q0 22 -22 38t-81 45q-67 33 -96.5 65.5t-29.5 77.5q0 50 33 83.5
t72.5 45t80.5 11.5q57 0 112 -21t90 -62l-87 -87q-46 48 -102 48q-16 0 -30 -8t-14 -22z" />
    <glyph glyph-name="uni0162" unicode="&#x162;" horiz-adv-x="625" 
d="M398 0h-42l-35 -51q38 7 62.5 -11.5t24.5 -55.5q0 -36 -29 -59t-68 -23q-53 0 -84 29l44 46q11 -11 28 -11q12 0 20.5 7t8.5 19t-8.5 19t-20.5 7q-17 0 -28 -11l-34 36l44 59h-43v617h-208v133h575v-133h-207v-617z" />
    <glyph glyph-name="uni0163" unicode="&#x163;" horiz-adv-x="357" 
d="M337 388h-97v-184q0 -120 97 -86v-99q-26 -17 -68 -22l-33 -48q38 7 62.5 -11.5t24.5 -55.5q0 -36 -29 -59t-68 -23q-53 0 -84 29l44 46q11 -11 28 -11q12 0 20.5 7t8.5 19t-8.5 19t-20.5 7q-17 0 -28 -11l-34 36l43 57q-110 22 -110 195v195h-55v122h55v130h155v-130h97
v-122z" />
    <glyph glyph-name="Tcaron" unicode="&#x164;" horiz-adv-x="625" 
d="M487 1047l-127 -186h-94l-127 186h106l68 -96l68 96h106zM605 617h-207v-617h-160v617h-208v133h575v-133z" />
    <glyph glyph-name="tcaron" unicode="&#x165;" horiz-adv-x="437" 
d="M405 550h-133l-13 270h159zM337 118v-99q-38 -24 -104 -24q-73 0 -110.5 46t-37.5 152v195h-55v122h55v130h155v-130h97v-122h-97v-184q0 -120 97 -86z" />
    <glyph glyph-name="Umacron" unicode="&#x16a;" horiz-adv-x="720" 
d="M564 837h-376v124h376v-124zM680 750v-451q0 -41 -7 -79.5t-27.5 -81.5t-53 -74.5t-89.5 -52t-132 -20.5q-74 0 -131.5 20.5t-90.5 52t-54 74.5t-28 81.5t-7 79.5v451h160v-451q0 -16 1.5 -33t10.5 -44t24 -47.5t45 -35.5t70 -15t70 15t44.5 35t23 48t10 44t1.5 33v451
h160z" />
    <glyph glyph-name="umacron" unicode="&#x16b;" horiz-adv-x="538" 
d="M473 590h-376v124h376v-124zM40 510h148v-296q0 -56 21 -82t65 -26q45 0 65.5 25.5t20.5 82.5v296h148v-510h-148v57q-23 -30 -62.5 -46t-81.5 -16q-89 0 -132 51.5t-43 157.5z" />
    <glyph glyph-name="Uring" unicode="&#x16e;" horiz-adv-x="720" 
d="M375 1067q55 0 93 -37t38 -93t-38 -93.5t-93 -37.5q-54 0 -92 37.5t-38 93.5t38 93t92 37zM375 987q-20 0 -35 -15t-15 -35q0 -21 15 -36t35 -15q21 0 36 15t15 36q0 20 -15 35t-36 15zM680 750v-451q0 -41 -7 -79.5t-27.5 -81.5t-53 -74.5t-89.5 -52t-132 -20.5
q-74 0 -131.5 20.5t-90.5 52t-54 74.5t-28 81.5t-7 79.5v451h160v-451q0 -16 1.5 -33t10.5 -44t24 -47.5t45 -35.5t70 -15t70 15t44.5 35t23 48t10 44t1.5 33v451h160z" />
    <glyph glyph-name="uring" unicode="&#x16f;" horiz-adv-x="538" 
d="M284 820q55 0 93 -37t38 -93t-38 -93.5t-93 -37.5q-54 0 -92 37.5t-38 93.5t38 93t92 37zM284 740q-20 0 -35 -15t-15 -35q0 -21 15 -36t35 -15q21 0 36 15t15 36q0 20 -15 35t-36 15zM40 510h148v-296q0 -56 21 -82t65 -26q45 0 65.5 25.5t20.5 82.5v296h148v-510h-148
v57q-23 -30 -62.5 -46t-81.5 -16q-89 0 -132 51.5t-43 157.5z" />
    <glyph glyph-name="Uhungarumlaut" unicode="&#x170;" horiz-adv-x="720" 
d="M192 861l91 176l117 -50l-102 -126h-106zM396 861l91 176l117 -50l-102 -126h-106zM680 750v-451q0 -41 -7 -79.5t-27.5 -81.5t-53 -74.5t-89.5 -52t-132 -20.5q-74 0 -131.5 20.5t-90.5 52t-54 74.5t-28 81.5t-7 79.5v451h160v-451q0 -16 1.5 -33t10.5 -44t24 -47.5
t45 -35.5t70 -15t70 15t44.5 35t23 48t10 44t1.5 33v451h160z" />
    <glyph glyph-name="uhungarumlaut" unicode="&#x171;" horiz-adv-x="538" 
d="M101 614l91 176l117 -50l-102 -126h-106zM305 614l91 176l117 -50l-102 -126h-106zM40 510h148v-296q0 -56 21 -82t65 -26q45 0 65.5 25.5t20.5 82.5v296h148v-510h-148v57q-23 -30 -62.5 -46t-81.5 -16q-89 0 -132 51.5t-43 157.5z" />
    <glyph glyph-name="Uogonek" unicode="&#x172;" horiz-adv-x="720" 
d="M520 750h160v-451q0 -38 -6 -73.5t-23 -76t-44 -71t-73.5 -54t-107.5 -30.5q-37 -39 -37 -60q0 -18 17.5 -28t45.5 -10v-86q-79 0 -121.5 26.5t-42.5 73.5q0 45 53 82q-67 4 -118.5 26.5t-81.5 53.5t-49 72.5t-25.5 78.5t-6.5 76v451h160v-451q0 -16 1.5 -33t10.5 -44
t24 -47.5t45 -35.5t70 -15t70 15t44.5 35t23 48t10 44t1.5 33v451z" />
    <glyph glyph-name="uogonek" unicode="&#x173;" horiz-adv-x="538" 
d="M458 -76q0 -18 17.5 -28t45.5 -10v-86q-79 0 -121.5 26.5t-42.5 73.5q0 55 83 100h-80v57q-23 -30 -62.5 -46t-81.5 -16q-89 0 -132 51.5t-43 157.5l-1 306h148v-296q0 -56 21 -82t65 -26q45 0 65.5 25.5t20.5 82.5v296h148v-510h3q-53 -51 -53 -76z" />
    <glyph glyph-name="Wcircumflex" unicode="&#x174;" horiz-adv-x="1049" 
d="M702 861h-106l-68 96l-68 -96h-106l127 186h94zM276 0l-266 750h157l153 -442l156 442h95l157 -442l153 442h158l-267 -750h-89l-159 441l-159 -441h-89z" />
    <glyph glyph-name="wcircumflex" unicode="&#x175;" horiz-adv-x="814" 
d="M582 621h-106l-68 96l-68 -96h-106l127 186h94zM804 510l-198 -510h-98l-101 269l-100 -269h-98l-199 510h152l96 -288l95 288h108l96 -289l96 289h151z" />
    <glyph glyph-name="Ycircumflex" unicode="&#x176;" horiz-adv-x="754" 
d="M540 861h-106l-68 96l-68 -96h-106l127 186h94zM744 750l-287 -464v-286h-160v286l-287 464h174l193 -315l194 315h173z" />
    <glyph glyph-name="ycircumflex" unicode="&#x177;" horiz-adv-x="569" 
d="M463 621h-106l-68 96l-68 -96h-106l127 186h94zM559 510l-168 -418q-62 -152 -105.5 -201.5t-119.5 -49.5q-31 0 -66.5 13t-58.5 37l23 97q50 -26 83 -26q18 0 31 11t19 37.5t-8 71.5l-169 428h154l116 -321l115 321h154z" />
    <glyph glyph-name="Ydieresis" unicode="&#x178;" horiz-adv-x="754" 
d="M340 951q0 -36 -25 -61t-61 -25q-35 0 -60 25t-25 61q0 34 25 58.5t60 24.5q36 0 61 -24t25 -59zM570 951q0 -36 -25 -61t-61 -25q-35 0 -60 25t-25 61q0 34 25 58.5t60 24.5q36 0 61 -24t25 -59zM744 750l-287 -464v-286h-160v286l-287 464h174l193 -315l194 315h173z
" />
    <glyph glyph-name="Zacute" unicode="&#x179;" horiz-adv-x="637" 
d="M273 861l91 176l117 -50l-102 -126h-106zM607 613l-382 -480h382v-133h-567v137l383 480h-383v133h567v-137z" />
    <glyph glyph-name="zacute" unicode="&#x17a;" horiz-adv-x="465" 
d="M180 621l91 176l117 -50l-102 -126h-106zM445 384l-247 -262h247v-122h-415v132l247 256h-247v122h415v-126z" />
    <glyph glyph-name="Zdotaccent" unicode="&#x17b;" horiz-adv-x="637" 
d="M417 951q0 -36 -25 -61t-61 -25q-35 0 -60 25t-25 61q0 34 25 58.5t60 24.5q36 0 61 -24t25 -59zM607 613l-382 -480h382v-133h-567v137l383 480h-383v133h567v-137z" />
    <glyph glyph-name="zdotaccent" unicode="&#x17c;" horiz-adv-x="465" 
d="M324 711q0 -36 -25 -61t-61 -25q-35 0 -60 25t-25 61q0 34 25 58.5t60 24.5q36 0 61 -24t25 -59zM445 384l-247 -262h247v-122h-415v132l247 256h-247v122h415v-126z" />
    <glyph glyph-name="Zcaron" unicode="&#x17d;" horiz-adv-x="637" 
d="M505 1047l-127 -186h-94l-127 186h106l68 -96l68 96h106zM607 613l-382 -480h382v-133h-567v137l383 480h-383v133h567v-137z" />
    <glyph glyph-name="zcaron" unicode="&#x17e;" horiz-adv-x="465" 
d="M412 807l-127 -186h-94l-127 186h106l68 -96l68 96h106zM445 384l-247 -262h247v-122h-415v132l247 256h-247v122h415v-126z" />
    <glyph glyph-name="circumflex" unicode="&#x2c6;" horiz-adv-x="468" 
d="M408 614h-106l-68 96l-68 -96h-106l127 186h94z" />
    <glyph glyph-name="caron" unicode="&#x2c7;" horiz-adv-x="448" 
d="M408 780l-127 -186h-94l-127 186h106l68 -96l68 96h106z" />
    <glyph glyph-name="breve" unicode="&#x2d8;" horiz-adv-x="486" 
d="M426 800q0 -85 -54.5 -134t-128.5 -49q-73 0 -128 49t-55 134h106q0 -87 77 -87t77 87h106z" />
    <glyph glyph-name="dotaccent" unicode="&#x2d9;" horiz-adv-x="261" 
d="M231 704q0 -36 -25 -61t-61 -25q-35 0 -60 25t-25 61q0 34 25 58.5t60 24.5q36 0 61 -24t25 -59z" />
    <glyph glyph-name="ring" unicode="&#x2da;" horiz-adv-x="381" 
d="M190 820q55 0 93 -37t38 -93t-38 -93.5t-93 -37.5q-54 0 -92 37.5t-38 93.5t38 93t92 37zM190 740q-20 0 -35 -15t-15 -35q0 -21 15 -36t35 -15q21 0 36 15t15 36q0 20 -15 35t-36 15z" />
    <glyph glyph-name="ogonek" unicode="&#x2db;" horiz-adv-x="264" 
d="M151 -76q0 -18 17.5 -28t45.5 -10v-86q-79 0 -121.5 26.5t-42.5 73.5q0 55 83 100h71q-53 -51 -53 -76z" />
    <glyph glyph-name="tilde" unicode="&#x2dc;" horiz-adv-x="511" 
d="M194 640q-17 0 -22.5 -12t-5.5 -41h-106q0 77 31 120.5t79 43.5q34 0 81 -26.5t66 -26.5q17 0 22.5 12t5.5 41h106q0 -77 -31 -120.5t-79 -43.5q-33 0 -80.5 26.5t-66.5 26.5z" />
    <glyph glyph-name="hungarumlaut" unicode="&#x2dd;" horiz-adv-x="532" 
d="M60 614l91 176l117 -50l-102 -126h-106zM264 614l91 176l117 -50l-102 -126h-106z" />
    <glyph glyph-name="gravecomb" unicode="&#x300;" horiz-adv-x="0" 
d="M-60 614h-106l-102 126l117 50z" />
    <glyph glyph-name="acutecomb" unicode="&#x301;" horiz-adv-x="0" 
d="M-268 614l91 176l117 -50l-102 -126h-106z" />
    <glyph glyph-name="uni0302" unicode="&#x302;" horiz-adv-x="0" 
d="M-60 614h-106l-68 96l-68 -96h-106l127 186h94z" />
    <glyph glyph-name="tildecomb" unicode="&#x303;" horiz-adv-x="0" 
d="M-347 640q-17 0 -22.5 -12t-5.5 -41h-106q0 77 31 120.5t79 43.5q33 0 81 -26.5t66 -26.5q17 0 22.5 12t5.5 41h106q0 -77 -31 -120.5t-79 -43.5q-34 0 -81 26.5t-66 26.5z" />
    <glyph glyph-name="uni0304" unicode="&#x304;" horiz-adv-x="0" 
d="M-60 590h-376v124h376v-124z" />
    <glyph glyph-name="uni0306" unicode="&#x306;" horiz-adv-x="0" 
d="M-80 800q0 -85 -54.5 -134t-128.5 -49q-73 0 -128 49t-55 134h106q0 -87 77 -87t77 87h106z" />
    <glyph glyph-name="uni0307" unicode="&#x307;" horiz-adv-x="0" 
d="M-60 704q0 -36 -25 -61t-61 -25q-35 0 -60 25t-25 61q0 34 25 58.5t60 24.5q36 0 61 -24t25 -59z" />
    <glyph glyph-name="uni0308" unicode="&#x308;" horiz-adv-x="0" 
d="M-290 704q0 -36 -25 -61t-61 -25q-35 0 -60 25t-25 61q0 34 25 58.5t60 24.5q36 0 61 -24t25 -59zM-60 704q0 -36 -25 -61t-61 -25q-35 0 -60 25t-25 61q0 34 25 58.5t60 24.5q36 0 61 -24t25 -59z" />
    <glyph glyph-name="uni030A" unicode="&#x30a;" horiz-adv-x="0" 
d="M-211 820q55 0 93 -37t38 -93t-38 -93.5t-93 -37.5q-54 0 -92 37.5t-38 93.5t38 93t92 37zM-211 740q-20 0 -35 -15t-15 -35q0 -21 15 -36t35 -15q21 0 36 15t15 36q0 20 -15 35t-36 15z" />
    <glyph glyph-name="uni030B" unicode="&#x30b;" horiz-adv-x="0" 
d="M-472 614l91 176l117 -50l-102 -126h-106zM-268 614l91 176l117 -50l-102 -126h-106z" />
    <glyph glyph-name="uni030C" unicode="&#x30c;" horiz-adv-x="0" 
d="M-50 800l-127 -186h-94l-127 186h106l68 -96l68 96h106z" />
    <glyph glyph-name="uni0312" unicode="&#x312;" horiz-adv-x="0" 
d="M-230 640q0 32 33 76l88 115h41l-37 -115q45 -23 45 -76q0 -34 -25 -59t-59 -25q-36 0 -61 24.5t-25 59.5z" />
    <glyph glyph-name="uni0326" unicode="&#x326;" horiz-adv-x="0" 
d="M-60 -125q0 -32 -33 -76l-88 -115h-41l37 115q-45 23 -45 76q0 35 25 59.5t59 24.5q36 0 61 -24.5t25 -59.5z" />
    <glyph glyph-name="uni0327" unicode="&#x327;" horiz-adv-x="0" 
d="M-92 0l-35 -51q38 7 62.5 -11.5t24.5 -55.5q0 -36 -29 -59t-68 -23q-53 0 -84 29l44 46q11 -11 28 -11q12 0 20.5 7t8.5 19t-8.5 19t-20.5 7q-17 0 -28 -11l-34 36l44 59h75z" />
    <glyph glyph-name="uni0328" unicode="&#x328;" horiz-adv-x="0" 
d="M-113 -76q0 -18 17.5 -28t45.5 -10v-86q-79 0 -121.5 26.5t-42.5 73.5q0 55 83 100h71q-53 -51 -53 -76z" />
    <glyph glyph-name="uni0335" unicode="&#x335;" horiz-adv-x="0" 
 />
    <glyph glyph-name="uni0337" unicode="&#x337;" horiz-adv-x="0" 
 />
    <glyph glyph-name="uni0338" unicode="&#x338;" horiz-adv-x="0" 
 />
    <glyph glyph-name="Wgrave" unicode="&#x1e80;" horiz-adv-x="1049" 
d="M589 861h-106l-102 126l117 50zM276 0l-266 750h157l153 -442l156 442h95l157 -442l153 442h158l-267 -750h-89l-159 441l-159 -441h-89z" />
    <glyph glyph-name="wgrave" unicode="&#x1e81;" horiz-adv-x="814" 
d="M469 621h-106l-102 126l117 50zM804 510l-198 -510h-98l-101 269l-100 -269h-98l-199 510h152l96 -288l95 288h108l96 -289l96 289h151z" />
    <glyph glyph-name="Wacute" unicode="&#x1e82;" horiz-adv-x="1049" 
d="M470 861l91 176l117 -50l-102 -126h-106zM276 0l-266 750h157l153 -442l156 442h95l157 -442l153 442h158l-267 -750h-89l-159 441l-159 -441h-89z" />
    <glyph glyph-name="wacute" unicode="&#x1e83;" horiz-adv-x="814" 
d="M350 621l91 176l117 -50l-102 -126h-106zM804 510l-198 -510h-98l-101 269l-100 -269h-98l-199 510h152l96 -288l95 288h108l96 -289l96 289h151z" />
    <glyph glyph-name="Wdieresis" unicode="&#x1e84;" horiz-adv-x="1049" 
d="M502 951q0 -36 -25 -61t-61 -25q-35 0 -60 25t-25 61q0 34 25 58.5t60 24.5q36 0 61 -24t25 -59zM732 951q0 -36 -25 -61t-61 -25q-35 0 -60 25t-25 61q0 34 25 58.5t60 24.5q36 0 61 -24t25 -59zM276 0l-266 750h157l153 -442l156 442h95l157 -442l153 442h158
l-267 -750h-89l-159 441l-159 -441h-89z" />
    <glyph glyph-name="wdieresis" unicode="&#x1e85;" horiz-adv-x="814" 
d="M382 711q0 -36 -25 -61t-61 -25q-35 0 -60 25t-25 61q0 34 25 58.5t60 24.5q36 0 61 -24t25 -59zM612 711q0 -36 -25 -61t-61 -25q-35 0 -60 25t-25 61q0 34 25 58.5t60 24.5q36 0 61 -24t25 -59zM804 510l-198 -510h-98l-101 269l-100 -269h-98l-199 510h152l96 -288
l95 288h108l96 -289l96 289h151z" />
    <glyph glyph-name="Ygrave" unicode="&#x1ef2;" horiz-adv-x="754" 
d="M427 861h-106l-102 126l117 50zM744 750l-287 -464v-286h-160v286l-287 464h174l193 -315l194 315h173z" />
    <glyph glyph-name="ygrave" unicode="&#x1ef3;" horiz-adv-x="569" 
d="M350 621h-106l-102 126l117 50zM559 510l-168 -418q-62 -152 -105.5 -201.5t-119.5 -49.5q-31 0 -66.5 13t-58.5 37l23 97q50 -26 83 -26q18 0 31 11t19 37.5t-8 71.5l-169 428h154l116 -321l115 321h154z" />
    <glyph glyph-name="endash" unicode="&#x2013;" horiz-adv-x="636" 
d="M586 197h-526v124h526v-124z" />
    <glyph glyph-name="emdash" unicode="&#x2014;" horiz-adv-x="786" 
d="M736 197h-676v124h676v-124z" />
    <glyph glyph-name="quoteleft" unicode="&#x2018;" horiz-adv-x="260" 
d="M29 553q0 32 33 76l88 115h41l-37 -115q45 -23 45 -76q0 -35 -24.5 -59.5t-59.5 -24.5q-36 0 -61 24.5t-25 59.5z" />
    <glyph glyph-name="quoteright" unicode="&#x2019;" horiz-adv-x="260" 
d="M231 700q0 -32 -33 -76l-88 -115h-41l37 115q-45 23 -45 76q0 34 24.5 59t59.5 25q36 0 61 -24.5t25 -59.5z" />
    <glyph glyph-name="quotesinglbase" unicode="&#x201a;" horiz-adv-x="260" 
d="M231 80q0 -32 -33 -76l-88 -115h-41l37 115q-45 23 -45 76q0 34 24.5 59t59.5 25q36 0 61 -24.5t25 -59.5z" />
    <glyph glyph-name="quotedblleft" unicode="&#x201c;" horiz-adv-x="490" 
d="M50 555q0 32 33 76l88 115h41l-37 -115q45 -23 45 -76q0 -35 -25 -59.5t-59 -24.5q-36 0 -61 24.5t-25 59.5zM260 555q0 32 33 76l88 115h41l-37 -115q45 -23 45 -76q0 -35 -25 -59.5t-59 -24.5q-36 0 -61 24.5t-25 59.5z" />
    <glyph glyph-name="quotedblright" unicode="&#x201d;" horiz-adv-x="500" 
d="M230 700q0 -32 -33 -76l-88 -115h-41l37 115q-45 23 -45 76q0 34 25 59t59 25q36 0 61 -24.5t25 -59.5zM440 700q0 -32 -33 -76l-88 -115h-41l37 115q-45 23 -45 76q0 34 25 59t59 25q36 0 61 -24.5t25 -59.5z" />
    <glyph glyph-name="quotedblbase" unicode="&#x201e;" horiz-adv-x="510" 
d="M230 80q0 -32 -33 -76l-88 -115h-41l37 115q-45 23 -45 76q0 34 25 59t59 25q36 0 61 -24.5t25 -59.5zM450 80q0 -32 -33 -76l-88 -115h-41l37 115q-45 23 -45 76q0 34 25 59t59 25q36 0 61 -24.5t25 -59.5z" />
    <glyph glyph-name="dagger" unicode="&#x2020;" 
 />
    <glyph glyph-name="daggerdbl" unicode="&#x2021;" 
 />
    <glyph glyph-name="bullet" unicode="&#x2022;" 
 />
    <glyph glyph-name="ellipsis" unicode="&#x2026;" horiz-adv-x="751" 
d="M231 81q0 -36 -25 -61t-61 -25q-35 0 -60 25t-25 61q0 34 25 58.5t60 24.5q36 0 61 -24t25 -59zM461 81q0 -36 -25 -61t-61 -25q-35 0 -60 25t-25 61q0 34 25 58.5t60 24.5q36 0 61 -24t25 -59zM691 81q0 -36 -25 -61t-61 -25q-35 0 -60 25t-25 61q0 34 25 58.5t60 24.5
q36 0 61 -24t25 -59z" />
    <glyph glyph-name="perthousand" unicode="&#x2030;" horiz-adv-x="1446" 
d="M250 780q82 0 136.5 -55.5t54.5 -134.5t-55 -135t-136 -56t-135.5 56t-54.5 135t54.5 134.5t135.5 55.5zM370 0h-140l405 750h139zM250 670q-35 0 -57.5 -23t-22.5 -57t22.5 -57.5t57.5 -23.5q36 0 58.5 23.5t22.5 57.5t-22.5 57t-58.5 23zM755 351q82 0 136.5 -55.5
t54.5 -134.5t-55 -135t-136 -56t-135.5 56t-54.5 135t54.5 134.5t135.5 55.5zM1175 351q82 0 136.5 -55.5t54.5 -134.5t-55 -135t-136 -56t-135.5 56t-54.5 135t54.5 134.5t135.5 55.5zM755 241q-35 0 -57.5 -23t-22.5 -57t22.5 -57.5t57.5 -23.5q36 0 58.5 23.5t22.5 57.5
t-22.5 57t-58.5 23zM1175 241q-35 0 -57.5 -23t-22.5 -57t22.5 -57.5t57.5 -23.5q36 0 58.5 23.5t22.5 57.5t-22.5 57t-58.5 23z" />
    <glyph glyph-name="guilsinglleft" unicode="&#x2039;" horiz-adv-x="457" 
d="M60 316l337 261v-168l-188 -134l188 -133v-168l-337 261v81z" />
    <glyph glyph-name="guilsinglright" unicode="&#x203a;" horiz-adv-x="484" 
d="M424 316v-81l-337 -261v168l188 133l-188 134v168z" />
    <glyph glyph-name="fraction" unicode="&#x2044;" horiz-adv-x="544" 
d="M140 0h-140l405 750h139z" />
    <glyph glyph-name="Euro" unicode="&#x20ac;" horiz-adv-x="883" 
d="M523 128q118 0 192 109l108 -78q-44 -78 -125 -121t-173 -43q-119 0 -218 65t-144 171h-103v72h81q-5 24 -6 48h-75v72h77q19 142 130 237t258 95q92 0 173 -43.5t125 -121.5l-108 -78q-73 110 -192 110q-87 0 -149 -55.5t-76 -143.5h201v-72h-204q1 -23 8 -48h196v-72
h-165q31 -48 80 -75.5t109 -27.5z" />
    <glyph glyph-name="trademark" unicode="&#x2122;" horiz-adv-x="669" 
d="M267 732h-75v-222h-57v222h-75v48h207v-48zM608 780v-270h-58v158l-80 -158h-35l-81 158v-158h-57v270h62l93 -186l94 186h62z" />
    <glyph glyph-name="partialdiff" unicode="&#x2202;" 
 />
    <glyph glyph-name="emptyset" unicode="&#x2205;" 
 />
    <glyph glyph-name="product" unicode="&#x220f;" 
 />
    <glyph glyph-name="summation" unicode="&#x2211;" 
 />
    <glyph glyph-name="minus" unicode="&#x2212;" horiz-adv-x="476" 
d="M436 197h-376v124h376v-124z" />
    <glyph glyph-name="radical" unicode="&#x221a;" 
 />
    <glyph glyph-name="infinity" unicode="&#x221e;" 
 />
    <glyph glyph-name="integral" unicode="&#x222b;" 
 />
    <glyph glyph-name="approxequal" unicode="&#x2248;" 
 />
    <glyph glyph-name="notequal" unicode="&#x2260;" 
 />
    <glyph glyph-name="lessequal" unicode="&#x2264;" 
 />
    <glyph glyph-name="greaterequal" unicode="&#x2265;" 
 />
    <glyph glyph-name="lozenge" unicode="&#x25ca;" 
 />
    <glyph glyph-name="one.sups" horiz-adv-x="193" 
d="M143 750v-247h-52v203h-35v44h87z" />
    <glyph glyph-name="two.sups" horiz-adv-x="272" 
d="M117 547h102v-44h-160v30q0 30 11 45.5t41 35.5q20 13 28.5 19t17.5 19t9 28q0 13 -6.5 20.5t-16.5 7.5q-30 0 -30 -43l-53 7q0 32 22 55.5t61 23.5q36 0 56 -20.5t20 -50.5q0 -41 -41 -71q-8 -6 -22.5 -15t-21 -13.5t-12 -13.5t-5.5 -20z" />
    <glyph glyph-name="three.sups" horiz-adv-x="282" 
d="M169 666q59 -14 59 -79q0 -40 -26.5 -63t-62.5 -23q-51 0 -79 35l33 30q18 -21 43 -21q16 0 28 11t12 31t-14 32.5t-40 6.5l-15 23l38 57h-64v44h146z" />
    </font>
</defs>
</svg>
